<?xml version="1.0" encoding="UTF-8" standalone="no"?>
<!-- Created with Inkscape (http://www.inkscape.org/) -->

<svg
   version="1.1"
   id="svg1"
   width="505.60001"
   height="145.06667"
   viewBox="0 0 505.60001 145.06667"
   sodipodi:docname="hypnos_label.svg"
   inkscape:version="1.3.2 (091e20e, 2023-11-25, custom)"
   xmlns:inkscape="http://www.inkscape.org/namespaces/inkscape"
   xmlns:sodipodi="http://sodipodi.sourceforge.net/DTD/sodipodi-0.dtd"
   xmlns="http://www.w3.org/2000/svg"
   xmlns:svg="http://www.w3.org/2000/svg">
  <sodipodi:namedview
     id="namedview1"
     pagecolor="#ffffff"
     bordercolor="#000000"
     borderopacity="0.25"
     inkscape:showpageshadow="false"
     inkscape:pageopacity="0.0"
     inkscape:pagecheckerboard="true"
     inkscape:deskcolor="#d1d1d1"
     inkscape:zoom="2.4624209"
     inkscape:cx="252.59695"
     inkscape:cy="72.692692"
     inkscape:window-width="2048"
     inkscape:window-height="1018"
     inkscape:window-x="-6"
     inkscape:window-y="-6"
     inkscape:window-maximized="1"
     inkscape:current-layer="svg1"
     inkscape:clip-to-page="false"
     labelstyle="default" />
  <defs
     id="defs1" />
  <g
     id="g1">
    <path
       style="display:inline;fill:#e2c41b"
       d="m 134.47512,140.66915 c -10.7645,-5.37909 -13.56941,-12.57443 -7.56685,-19.41097 l 3.17493,-3.61605 -8.13587,-0.68773 c -4.47473,-0.37825 -12.86345,-0.68773 -18.6416,-0.68773 -14.756604,0 -14.768864,-0.0153 -14.784135,-18.400004 -0.0065,-7.773333 -0.306984,-15.919301 -0.667838,-18.102151 l -0.656099,-3.968817 -2.960119,3.168817 c -4.815755,5.155282 -11.761187,4.617468 -17.25771,-1.336338 -4.762189,-5.158379 -5.592341,-4.710851 -6.739978,3.63347 -1.210381,8.80052 1.407933,20.375293 5.049989,22.324453 2.672721,1.4304 2.1755,11.02213 -0.807362,15.57455 -1.743029,2.6602 -1.979196,2.70684 -9.401876,1.85682 -11.938041,-1.36711 -25.918453,-0.63015 -32.600766,1.71849 C 14.904491,125.39848 12.594025,125.33668 9.9192292,122.4 5.1232753,117.13448 3.9234519,111.05921 7.0066608,107.65231 11.556776,102.62449 12.299434,37.236277 7.8743595,31.254748 4.0945872,26.145496 0.92100696,19.167066 1.2698769,16.732058 1.6710502,13.93199 21.979451,3.2 26.876915,3.2 c 7.208972,0 11.55673,10.043949 7.442334,17.192869 -3.256969,5.659108 -4.665273,16.864291 -4.266693,33.947987 0.397042,17.017752 0.83042,18.041355 6.99385,16.518883 5.209204,-1.286762 6.822325,-5.872521 9.488454,-26.973646 l 1.934913,-15.313908 -4.66176,-3.975171 C 38.33409,19.929295 38.368222,17.937828 44.049822,10.488752 48.48482,4.6740801 50.005185,4.4151706 56.445376,8.3778596 c 2.866874,1.7640054 7.299477,3.8046654 9.850228,4.5348004 7.010266,2.006638 7.304397,2.45928 7.304397,11.240816 0,7.335942 -0.183835,7.97602 -2.607988,9.080538 -3.558011,1.621139 -4.759318,4.662975 -1.407865,3.564865 6.837363,-2.240274 10.972629,-1.864436 14.366263,1.305693 l 3.303568,3.085994 0.627938,-3.795283 c 0.345366,-2.087406 0.633221,-9.652698 0.639678,-16.81176 0.01867,-20.70013575 -1.241294,-19.82649172 27.882455,-19.3333766 30.11126,0.5098354 36.83491,5.3678953 25.42105,18.3675616 -5.05489,5.757208 -3.89212,7.048958 6.34514,7.048958 10.33449,0 11.01051,-0.812958 6.01156,-7.229331 -5.02885,-6.454745 -4.82492,-9.9498431 0.84779,-14.5300061 L 159.12584,1.6 180.82109,1.2555751 c 25.51311,-0.40503581 26.10489,-0.2453946 26.12858,7.0486209 0.0258,7.957552 0.92806,8.523468 7.60224,4.768488 34.93887,-19.657056 63.20356,2.521023 57.75943,45.321305 -2.95318,23.217041 -11.98477,35.438549 -27.93864,37.806446 -6.5104,0.966284 -10.61153,2.999564 -6.05012,2.999564 4.03023,0 9.32543,11.879151 7.28824,16.350291 -1.79272,3.93458 -22.74613,13.0621 -28.14556,12.26049 -6.25742,-0.92898 -9.11595,-13.17083 -4.27812,-18.32136 l 2.52047,-2.68338 -1.26091,-28.069688 C 213.7532,63.298025 212.78113,47.166627 212.28655,42.888801 210.8639,30.583853 207.20113,28.716072 207.00831,40.197227 206.7861,53.428017 197.30869,59.769001 188.17186,52.8 c -4.53568,-3.459527 -6.64068,-3.384086 -7.44063,0.266666 -0.35351,1.613334 -0.84731,3.584736 -1.09734,4.380893 -0.60424,1.924064 1.47126,9.48551 2.83497,10.328328 0.59265,0.366278 2.55436,-0.777903 4.35936,-2.542626 13.17027,-12.876372 19.36471,-4.763082 19.9442,26.12228 0.49671,26.473769 2.36533,24.382189 -22.71676,25.427129 l -18.88162,0.78661 3.81298,3.49256 c 14.33972,13.13467 -14.58235,29.56622 -34.5119,19.60731 z m 23.73814,-10.45574 c 0.84425,-0.84425 0.5138,-1.62371 -1.19613,-2.82138 -7.16013,-5.01515 -6.97978,-16.14034 0.31552,-19.4643 1.55429,-0.70818 8.67029,-1.59088 15.81333,-1.96155 20.62361,-1.07021 26.60114,-8.797153 22.15024,-28.632847 l -0.71804,-3.2 -1.46332,2.666666 c -3.13936,5.720977 -9.51487,7.032601 -15.7385,3.237857 -14.85799,-9.059389 -9.46913,-44.854905 6.74955,-44.833869 3.54284,0.0046 9.99198,3.589141 10.03986,5.580334 0.0178,0.741957 0.54161,0.473428 1.16392,-0.59673 1.78182,-3.064063 0.077,-23.676169 -2.12014,-25.634116 -1.77812,-1.584522 -8.42202,-2.154513 -21.47621,-1.842481 l -6.93334,0.165727 2.87846,2.361639 c 7.58443,6.222682 7.01033,23.16164 -0.78501,23.16164 -2.1719,0 -2.95879,2.019442 -7.89705,20.266666 -5.18112,19.144609 -10.23988,32.243943 -15.52768,40.207951 -4.45387,6.708013 -4.47756,6.961353 -1.06872,11.430573 3.82055,5.00899 3.58289,10.17706 -0.69191,15.04578 -3.41301,3.88721 -3.2727,5.14796 0.69191,6.21743 3.33429,0.89944 14.51704,-0.0588 15.81326,-1.35499 z m -43.52072,-25.88372 c 0.30891,-0.30892 -0.65968,-2.91576 -2.15243,-5.79297 -1.49275,-2.877214 -3.01621,-7.865018 -3.38545,-11.08401 -0.36925,-3.218991 -1.32011,-6.799514 -2.11301,-7.956717 C 103.59231,74.461867 106.64834,64 111.56821,64 c 3.25416,0 17.63678,5.839646 20.90941,8.489662 2.68909,2.177494 0.78546,9.579306 -3.44929,13.411696 -2.7573,2.495324 -2.75104,5.831975 0.0109,5.831975 6.18626,0 9.0487,-19.843139 3.88129,-26.906059 -0.97672,-1.335001 -4.80832,-7.002866 -8.51467,-12.595255 -3.70635,-5.59239 -8.054,-11.029725 -9.66145,-12.082967 -3.42742,-2.245731 -6.3655,-8.556256 -5.47864,-11.767212 0.5963,-2.158931 17.39732,-14.515173 19.73656,-14.515173 0.62203,0 1.13096,-0.527095 1.13096,-1.171322 0,-1.320885 -28.06082,-0.993535 -29.39508,0.342915 -0.42368,0.424376 -1.128132,7.864376 -1.565453,16.533333 -1.32209,26.207604 -7.124831,33.195007 -18.703614,22.522058 -5.785646,-5.333022 -6.8174,-4.762374 -7.631997,4.221151 -1.122175,12.375546 1.221443,14.676769 8.36994,8.218531 10.762411,-9.723192 16.765148,-1.775808 18.007682,23.841451 0.545579,11.24819 1.137142,15.574866 2.230512,16.313886 1.48115,1.00113 12.17694,0.71129 13.24722,-0.35898 z M 38.789485,99.12258 c 3.216737,-2.530285 3.527338,-4.386711 1.134325,-6.779724 -2.282895,-2.282895 -5.361376,-2.10529 -7.92381,0.457143 -4.988447,4.988447 1.181341,10.733951 6.789485,6.322581 z M 247.34669,74.261043 C 258.33594,62.56353 252.4489,25.6 239.59664,25.6 c -6.08313,0 -7.61609,3.365429 -7.51014,16.487584 0.21939,27.169793 6.84257,41.133612 15.26019,32.173459 z M 145.54002,44.376344 c 1.17533,-4.664219 -0.005,-5.933931 -5.54002,-5.960011 -3.71225,-0.01749 -4.16634,0.902994 -2.26293,4.587124 3.58285,6.934766 6.28176,7.409625 7.80295,1.372887 z m 142.7825,77.211076 c -5.65995,-2.27934 -7.24301,-12.09319 -3.25585,-20.18398 6.26241,-12.70775 1.88811,-74.579696 -5.34566,-75.611268 -9.88856,-1.410158 -5.79842,-16.0979222 5.67863,-20.3920343 19.12081,-7.154012 26.23795,-2.7674934 24.44686,15.0673753 -0.76621,7.629607 1.42976,20.072255 4.21467,23.880849 1.15516,1.579766 1.72182,0.701894 4.25791,-6.596373 4.03946,-11.624577 4.28126,-13.01963 2.75197,-15.877142 -2.99691,-5.599784 2.54224,-16.5550628 8.35711,-16.5285921 3.83331,0.01745 25.82819,9.6588951 27.24213,11.9415771 0.79726,1.287105 0.77857,3.163918 -0.0637,6.4 l -1.19178,4.578834 2.2926,-3.154488 c 20.75848,-28.5623792 52.07032,-27.2728807 62.0034,2.553452 l 2.99201,8.984186 2.81677,-8.66894 c 10.5789,-32.557788 43.92459,-31.1926131 63.40771,2.595916 3.79579,6.582844 5.80173,8.981792 8.21327,9.82246 2.23215,0.778133 3.81504,2.487655 5.26839,5.689874 3.85848,8.501541 3.00449,10.638237 -6.40893,16.035235 -2.64,1.51359 -6.20981,4.234805 -7.9329,6.047144 -8.47849,8.917615 -23.34609,-2.838734 -16.0671,-12.704839 3.61712,-4.902738 3.36439,-7.935769 -1.32128,-15.856445 -13.88108,-23.464623 -27.95644,-19.207425 -28.24392,8.542584 -0.14014,13.526498 2.95964,16.616123 26.15597,26.070284 20.91546,8.524546 25.27589,12.35557 25.27589,22.207083 0,19.454438 -28.11276,33.519118 -42.61217,21.318668 -1.78338,-1.50062 -5.60251,-3.591 -8.48697,-4.64531 -14.94095,-5.46111 -16.56676,-10.09276 -6.76553,-19.273885 l 7.4981,-7.023708 -4.75809,-2.524159 c -5.70653,-3.027311 -12.57875,-10.543073 -14.23834,-15.571687 -1.79263,-5.431695 -2.61536,-4.535315 -4.68738,5.106933 -16.11993,75.015036 -68.07668,59.429696 -68.29556,-20.486448 l -0.0541,-19.73609 -4.08897,0.389946 c -8.15546,0.777748 -11.91144,13.102626 -11.91024,39.082234 8.5e-4,18.228199 -0.2947,16.89012 6.47,29.292684 3.51899,6.4518 3.54628,13.23541 0.0624,15.51812 -5.43348,3.56015 -46.92787,6.42807 -53.67737,3.70995 z M 316.8,102.34603 c 0,-4.881529 -9.68037,-23.687876 -11.33922,-22.029033 -1.22378,1.223786 1.45747,17.76079 3.34733,20.645073 1.6887,2.57729 7.99189,3.66881 7.99189,1.38396 z m 152.60346,-1.05023 c 3.13922,-1.680055 2.47604,-4.066786 -1.6808,-6.049044 -4.63314,-2.209391 -6.3973,-0.939582 -5.34581,3.847818 0.77806,3.542496 3.13866,4.281996 7.02661,2.201226 z m -79.03407,-3.368546 c 14.7343,-24.228623 15.27488,-73.393921 0.80697,-73.393921 -19.31804,0 -27.14515,34.904492 -14.07156,62.751238 6.81755,14.521379 9.56516,16.725899 13.26459,10.642683 z"
       id="path4" />
    <path
       style="display:inline;fill:#dc5f0b"
       d="m 134.55888,140.23475 c -11.52572,-5.81618 -13.8442,-12.89031 -6.44083,-19.65225 l 3.22616,-2.94664 -4.0721,-0.67286 c -2.23966,-0.37007 -10.69393,-0.67814 -18.78726,-0.68459 -20.375103,-0.0163 -19.951516,0.43403 -19.951516,-21.209353 0,-19.55166 -0.296038,-20.654891 -4.351131,-16.215133 -4.868134,5.329924 -12.841587,4.304064 -18.036696,-2.320591 -2.949626,-3.761279 -3.805771,-3.691719 -5.241159,0.425838 -2.75183,7.893903 -0.09088,24.231249 4.33222,26.598419 2.003098,1.07203 2.159267,1.8086 1.525949,7.19715 -1.169226,9.94829 -2.655258,11.3117 -11.147593,10.22775 -11.542735,-1.47329 -27.294964,-0.66345 -33.583066,1.72654 -8.995568,3.41906 -11.02543,2.73347 -14.9698963,-5.05606 -2.1684624,-4.28228 -2.1995044,-7.63135 -0.092316,-9.95976 C 13.237085,100.76777 12.948782,37.671053 6.6097141,28.920224 2.0540624,22.63133 0.43864608,17.50864 2.3028043,15.262467 4.3097096,12.844294 24.353345,3.2 27.372103,3.2 c 6.92996,0 10.368918,9.81558 6.387541,18.231519 -6.73904,14.24516 -6.125807,50.035147 0.857312,50.035147 6.900304,0 8.593227,-3.244094 11.302459,-21.658531 2.978376,-20.243798 2.915824,-20.975031 -2.186081,-25.555106 -5.134023,-4.608908 -5.198616,-5.413628 -0.949456,-11.828688 5.082237,-7.6727782 6.004637,-7.843402 15.423634,-2.8530322 4.458964,2.3624472 8.992109,4.2953582 10.073657,4.2953582 3.74703,0 5.319831,2.949201 5.302498,9.942857 -0.01741,7.025768 -0.405241,8.073138 -3.653512,9.866681 -3.5273,1.94761 -3.484716,4.076886 0.06397,3.198653 8.506902,-2.105297 9.57642,-1.986749 13.549756,1.501886 l 3.844031,3.375104 0.553529,-2.475924 C 88.245883,37.914166 88.623603,29.676489 88.780819,20.969975 89.156717,0.15308203 88.16794,1.0666667 110.32227,1.0666667 c 33.46609,0 42.85116,5.5683397 31.36955,18.6121433 -5.49757,6.245569 -4.75984,6.948955 7.3119,6.971523 10.45859,0.01955 11.04235,-0.583298 6.18946,-6.391835 -11.311,-13.5383769 -1.91394,-19.1654906 32.03615,-19.1837736 18.24626,-0.00983 19.70401,0.6207092 19.70401,8.5228083 0,7.0340303 0.75044,7.1846153 10.9232,2.1918483 32.03765,-15.7240157 54.81936,0.505987 54.57122,38.877285 -0.16603,25.672912 -12.06124,44.856685 -28.16109,45.416233 -2.05333,0.07136 -4.93333,0.494549 -6.4,0.940413 l -2.66667,0.810662 2.87755,1.168736 c 4.84391,1.96739 8.96264,10.85215 7.54457,16.27485 -0.98103,3.75147 -23.58697,13.53143 -28.45385,12.30992 -6.0505,-1.51858 -8.01786,-11.91514 -3.5152,-18.57623 2.61902,-3.87449 2.64995,-4.16257 1.74074,-16.211251 -0.50911,-6.746666 -1.38929,-22.022531 -1.95594,-33.946365 -0.79982,-16.830184 -1.41443,-22.265978 -2.7476,-24.300656 -2.43136,-3.710721 -3.75317,-2.250353 -3.78036,4.17664 -0.0606,14.333959 -9.60768,21.32729 -18.48027,13.537048 -4.12071,-3.618027 -6.69531,-4.07568 -7.50089,-1.333333 -3.55043,12.086411 -0.14084,20.924321 5.68146,14.726763 12.80032,-13.625318 20.26578,-2.372102 20.3046,30.60657 0.0247,21.014804 1.06979,19.995234 -20.51481,20.014564 -21.44889,0.0192 -22.04873,0.18529 -17.8677,4.94723 12.69832,14.46258 -13.70542,29.23404 -33.97342,19.00629 z m 25.42656,-2.28365 c 10.43081,-4.2623 11.44143,-11.24262 2.47805,-17.11565 -7.50878,-4.91994 -0.91286,-7.38785 20.46985,-7.65896 18.21443,-0.23094 19.82185,-1.5725 20.56799,-17.166026 1.28146,-26.781382 -5.24306,-37.814157 -15.67878,-26.512352 -6.35201,6.87917 -11.09793,2.120493 -11.01749,-11.047087 0.079,-12.935378 4.91797,-17.277015 11.69864,-10.496343 9.77147,9.77147 15.20454,3.289997 15.22346,-18.161081 0.0158,-17.918801 -7.42842,-26.6214785 -22.72993,-26.5724719 -24.36732,0.078042 -32.55255,6.8848769 -20.70038,17.2144289 5.47007,4.767345 4.18825,7.331592 -4.73499,9.472244 -14.19763,3.405959 -27.6081,-3.466647 -19.07489,-9.775515 3.63563,-2.687943 5.44119,-6.91828 4.28583,-10.041514 C 138.99073,5.2733848 137.436,4.9371144 114.73711,4.4595526 L 93.131259,4.0049874 92.432297,10.692298 c -0.38443,3.67802 -0.701639,11.776898 -0.704911,17.997506 -0.0098,18.692324 -2.381593,23.142309 -8.007548,15.024054 -7.901788,-11.402284 -18.119837,-2.368661 -18.119837,16.019475 0,16.68744 11.243229,25.885798 17.601242,14.4 1.92441,-3.476463 4.845888,-4.646007 6.778726,-2.713702 0.755341,0.755133 1.448459,7.598365 1.819759,17.966699 0.851203,23.7693 0.02839,23.03691 27.057122,24.08388 19.12752,0.74092 22.36644,2.88488 13.10854,8.67703 -14.87685,9.30761 9.82387,23.23931 28.02005,15.80386 z m -20.63338,-3.58119 c -7.03717,-2.10885 -8.91588,-6.43521 -3.91701,-9.02023 3.78715,-1.95841 5.36495,-4.60182 5.36495,-8.9883 0,-5.46096 -2.5924,-6.27086 -23.32201,-7.28612 C 94.844926,107.96678 96.006705,108.87188 95.983339,92.329461 95.947017,66.615131 89.260887,57.050638 80.254046,69.828744 75.305585,76.849182 71.508541,75.01125 69.335484,64.54369 66.620522,51.465786 75.081111,37.20897 80.048703,46.491001 c 3.258833,6.089184 9.763171,6.954895 13.79014,1.835434 1.959019,-2.490488 2.162686,-4.305366 2.177492,-19.403618 0.02118,-21.5942701 -1.744566,-19.8561504 20.171705,-19.8561504 22.97719,0 28.8254,3.3359674 14.47863,8.2589844 -6.69318,2.296729 -17.538,10.504554 -17.57163,13.29896 -0.0287,2.383386 0.4273,2.946492 5.38678,6.652348 1.51167,1.129558 4.24713,4.865486 6.07881,8.302063 1.83167,3.436576 5.74219,9.515626 8.69005,13.509 9.71364,13.158808 7.30783,36.911977 -3.73858,36.911977 -6.24286,0 -9.17454,-10.474118 -3.72102,-13.294242 6.90682,-3.571658 4.89034,-8.616808 -4.90952,-12.283404 -10.78835,-4.036439 -14.51936,-1.363031 -9.96273,7.138659 1.29861,2.422911 2.14784,6.033751 2.14784,9.132352 0,9.280948 6.08969,17.572136 13.65125,18.586356 11.34374,1.52151 18.84352,-11.273339 29.51084,-50.346387 4.71415,-17.267335 6.3793,-20.8 9.80425,-20.8 1.94744,0 3.56699,-3.535156 3.56699,-7.786026 0,-3.824942 -3.39709,-9.28064 -5.77876,-9.28064 -0.7465,0 -2.26716,-1.005427 -3.37926,-2.234282 -4.9184,-5.4347691 8.50794,-10.957844 19.67901,-8.095182 C 184.01445,7.734928 189,8.5472175 191.2,8.5422909 c 7.49165,-0.016777 8.26667,1.8752911 8.26667,20.1815181 0,13.045435 -0.30261,16.226414 -1.67408,17.597885 -1.94037,1.940374 -5.47305,0.650226 -6.54831,-2.39147 -4.55064,-12.872864 -18.83873,-2.047573 -18.74639,14.203109 0.0875,15.405054 9.61743,26.406644 16.04589,18.523822 6.82007,-8.363047 6.3467,-8.029819 8.45578,-5.952417 2.34271,2.307529 3.66002,33.772642 1.52178,36.349062 -0.81012,0.97613 -5.60517,1.62731 -15.46489,2.10017 -28.39354,1.36173 -33.90615,4.93122 -23.66242,15.32173 2.60004,2.6373 4.483,5.43186 4.18435,6.21015 -1.46698,3.82288 -16.2576,6.07207 -24.22632,3.68406 z m 18.37342,-3.57906 2.52548,-1.40022 -3.29871,-2.34889 c -6.29611,-4.48322 -6.75774,-13.82787 -0.87357,-17.68332 3.0186,-1.97786 16.76769,-3.73885 29.28106,-3.75033 10.72635,-0.01 10.91426,-0.28259 10.89236,-15.810864 -0.0214,-15.182513 -0.44998,-16.204806 -4.80181,-11.453722 -9.81995,10.72089 -24.47507,-3.205293 -22.59033,-21.4667 1.77357,-17.184193 12.81742,-26.267974 22.36647,-18.396844 3.44244,2.837547 4.07159,3.039089 4.66442,1.494193 1.20946,-3.151792 -0.46011,-24.200557 -2.0453,-25.785746 -1.67548,-1.675484 -21.1502,-3.19551 -25.84487,-2.017225 l -2.95771,0.74234 2.68152,2.876572 c 7.38385,7.920953 7.13422,17.792487 -0.56481,22.335022 -3.35083,1.977042 -3.77166,2.917403 -7.0953,15.854955 -5.72077,22.268599 -11.30702,36.45781 -19.3316,49.102739 l -2.1256,3.34947 2.75684,3.27632 c 4.65912,5.53705 4.64146,9.77944 -0.0624,14.98603 -2.20045,2.43563 -3.8135,4.58494 -3.58456,4.77625 3.58486,2.99559 15.56117,3.78568 20.0084,1.31997 z m -43.88304,-25.85682 2.37577,-0.63684 -2.71699,-4.636187 c -1.51908,-2.592116 -3.13233,-7.574606 -3.65903,-11.30085 -0.51812,-3.665564 -1.7524,-8.169393 -2.74283,-10.008509 -2.18725,-4.061493 -1.39189,-9.952943 1.72443,-12.773168 3.83321,-3.46901 24.50954,4.627154 24.50954,9.597121 0,3.499796 -3.64435,10.757357 -5.82123,11.592702 -2.11501,0.811606 -2.10881,3.252581 0.0127,5.013303 2.71205,2.250799 5.4936,-1.675754 7.92693,-11.189964 2.52732,-9.881727 2.29697,-10.976834 -3.91222,-18.599266 -2.5759,-3.162184 -6.66946,-9.092374 -9.0968,-13.1782 -2.42735,-4.085826 -5.56597,-7.953938 -6.97471,-8.595804 -4.7007,-2.141798 -7.17419,-10.108347 -4.268,-13.746398 1.97174,-2.468286 16.90331,-12.605303 18.56729,-12.605303 4.37872,0 0.43979,-1.933208 -5.12376,-2.514714 C 100.60895,8.8398422 99.957145,9.2899103 99.134752,28.965708 98.047667,54.974247 91.882149,62.613755 80.469183,52.093651 c -6.063926,-5.589531 -7.05902,-4.775298 -7.700198,6.300661 -0.668582,11.549362 0.922793,12.917375 7.891162,6.783572 11.417828,-10.050374 17.483716,-2.669392 18.317519,22.288782 0.624976,18.707414 2.410674,20.805754 14.864774,17.467364 z M 140.02945,52 C 133.98308,45.691028 129.26707,34.360717 132,32.709098 c 0.85087,-0.514211 15.57659,3.005172 17.4697,4.175183 2.00012,1.236136 -2.45113,18.582385 -4.76844,18.582385 -0.74219,0 -2.8445,-1.56 -4.67181,-3.466666 z m 5.06362,-4.602773 c 2.52854,-6.650555 1.50173,-8.598282 -4.8264,-9.15512 -5.04468,-0.443901 -5.22909,1.030859 -0.97214,7.774299 3.04278,4.820078 4.37071,5.136301 5.79854,1.380821 z M 37.842052,100.0838 c 3.602861,-1.641576 4.766569,-6.041566 2.111366,-7.983098 -5.936378,-4.340786 -13.137226,1.96058 -8.321431,7.281974 2.07668,2.294704 2.58626,2.352234 6.210065,0.701124 z M 244.83537,76.589801 c 9.95188,-4.534381 11.06333,-38.455206 1.57105,-47.947492 -11.58192,-11.581911 -17.65348,3.021883 -12.92618,31.091024 2.7214,16.158747 5.10864,19.70256 11.35513,16.856468 z m 44.2313,45.216759 c -5.88382,-1.76814 -8.04464,-11.91888 -4.13424,-19.42116 C 291.09188,90.568238 287.3993,25.6 280.5682,25.6 c -6.36865,0 -7.75775,-11.958148 -1.90153,-16.3693883 16.41631,-12.3656941 34.76176,-6.9537303 31.211,9.2073433 -1.60559,7.307786 2.2054,28.112134 4.98022,27.187193 2.64029,-0.880094 8.06485,-20.716873 6.48814,-23.726122 -2.86042,-5.459312 2.18207,-16.5781311 7.50826,-16.5559033 2.68726,0.011215 24.56957,8.7401833 27.03059,10.7826433 1.60292,1.330308 1.58055,4.097909 -0.0852,10.5409 -0.63472,2.455035 -0.58006,2.504934 0.68878,0.628757 20.42703,-30.2046514 54.58815,-29.4648689 63.37226,1.37237 2.30282,8.084198 3.23023,8.72131 4.65988,3.201224 9.36105,-36.1444866 45.67879,-36.2900115 64.80007,-0.259653 3.73096,7.030271 5.04347,8.487233 8.17601,9.075853 2.387,0.448531 5.8115,6.578286 6.68613,11.967968 0.58749,3.620258 0.38195,3.935238 -4.4188,6.771838 -2.76921,1.636237 -7.45719,5.061333 -10.41773,7.611324 -10.19251,8.779085 -24.69085,-0.532036 -17.44109,-11.201012 4.56595,-6.7194 2.60595,-13.674955 -6.80855,-24.161913 -11.35893,-12.652872 -19.66794,-9.408949 -22.49011,8.780366 -2.96244,19.093388 0.57904,23.61427 26.88237,34.316735 17.51131,7.125107 23.22154,11.688474 24.07083,19.236325 2.39308,21.267892 -27.89543,36.507542 -44.16577,22.221992 -1.98084,-1.7392 -4.32865,-3.16217 -5.21737,-3.16217 -4.09277,0 -15.37658,-8.30905 -15.37658,-11.32284 0,-0.7174 3.41799,-4.423896 7.59554,-8.236666 l 7.59555,-6.932309 -4.36589,-2.22731 c -6.65473,-3.394988 -11.18676,-7.887341 -13.98575,-13.863314 -3.2248,-6.885084 -3.87118,-6.799627 -5.41386,0.715769 -12.83157,62.51071 -53.8805,68.25095 -66.64554,9.31964 -2.28837,-10.564563 -3.29109,-35.23307 -1.69051,-41.589534 1.52368,-6.051094 1.77381,-5.750333 -4.09825,-4.927735 -9.38277,1.314401 -15.93201,27.318854 -12.92333,51.313509 1.08264,8.63423 1.64458,10.003472 6.70152,16.32919 3.64114,4.55469 3.49022,14.58251 -0.24673,16.39443 -6.33906,3.07357 -45.23346,5.87741 -52.25609,3.76706 z m 27.04795,-21.26384 c -0.18078,-4.01838 -8.45613,-21.609387 -10.16573,-21.609387 -1.72719,0 -0.44518,14.396308 1.77563,19.939424 2.62309,6.547193 8.66359,7.749493 8.3901,1.669963 z m 155.82791,-1.249722 c 0.92017,-1.488869 -4.83314,-5.566644 -7.34668,-5.2071 -2.80862,0.401755 -3.5173,5.240268 -1.11881,7.638752 1.76541,1.76542 6.75784,0.33137 8.46549,-2.431652 z m -81.15151,-1.959665 c 15.47821,-30.63058 15.11241,-74.048639 -0.61113,-72.537806 -22.85707,2.196275 -27.07002,50.017258 -6.55441,74.398674 3.57075,4.243599 4.15789,4.091119 7.16554,-1.860868 z"
       id="path3" />
    <path
       style="display:inline;fill:#46321f"
       d="m 139.1777,142.14342 c -14.21382,-5.08721 -18.60645,-13.27878 -11.12984,-20.75539 4.46475,-4.46474 4.2859,-4.51981 -16.63304,-5.12136 -23.86307,-0.68622 -22.258522,0.77196 -22.63292,-20.568437 -0.385924,-21.997375 -0.423428,-22.129053 -4.938954,-17.3412 -5.345689,5.668081 -10.152357,5.365732 -16.27451,-1.0237 -5.475462,-5.714509 -5.195385,-5.653954 -6.664088,-1.440829 -2.853564,8.185739 -0.808447,22.81895 3.884686,27.795696 2.628111,2.78692 2.68045,3.10483 1.492743,9.06666 -1.595695,8.00977 -3.239568,9.24359 -10.81511,8.11734 -10.374791,-1.54242 -28.127297,-0.57289 -34.33854,1.87535 C 10.509902,126.93286 1.5049063,116.84633 7.3770837,107.34495 13.436735,97.540227 13.173407,35.313233 7.045197,28.91676 2.3687857,24.035639 0.66077608,17.472557 3.3635231,14.76981 6.0688607,12.064473 24.48813,3.2 27.404146,3.2 c 6.45778,0 9.899515,9.868793 6.182156,17.726644 -7.124558,15.060079 -6.131985,50.540022 1.413888,50.540022 7.03358,0 8.701585,-3.441388 11.374044,-23.466666 0.900372,-6.746667 1.897576,-13.833717 2.216009,-15.749001 0.514549,-3.094859 0.03747,-3.975147 -4.287675,-7.911373 -5.513759,-5.017965 -5.535028,-5.998679 -0.289406,-13.344542 4.392797,-6.1515824 5.185244,-6.2300201 14.009971,-1.3867292 4.267375,2.3420712 8.763629,4.2583122 9.991675,4.2583122 6.495932,0 8.089773,15.024732 2.059805,19.417258 -2.867477,2.088811 -4.070683,5.789846 -1.541279,4.740938 7.922284,-3.285257 16.8,-1.91372 16.8,2.595467 0,0.538818 0.664612,0.97967 1.476915,0.97967 1.183845,0 1.559366,-3.595817 1.892427,-18.120999 C 89.231682,0.40846155 88.162864,1.7193621 106.82991,1.2460193 c 34.871,-0.88422844 46.04974,5.2422773 34.39968,18.8527477 -5.14411,6.009735 -4.08321,6.994566 7.53486,6.994566 9.35947,0 11.34982,-0.619088 9.59782,-2.985351 -0.56591,-0.764333 -2.58893,-3.453329 -4.4956,-5.975547 -8.6671,-11.4651931 -1.06581,-15.745719 29.6,-16.6687011 21.70446,-0.6532626 22.7832,-0.284471 23.25767,7.9511258 0.40864,7.0929183 1.64797,7.5866303 8.89825,3.5447953 C 227.85999,6.13763 244.44471,4.2304255 253.48302,8.6057939 284.03933,23.397849 275.52587,95.759944 243.2,96.008616 c -6.62009,0.05093 -9.72809,2.39253 -4.81297,3.626148 3.40362,0.854256 6.94631,7.658206 6.94631,13.340816 0,4.62775 -6.01481,8.44558 -21.04536,13.35832 -11.1908,3.65771 -18.09315,-7.54429 -10.33194,-16.76797 2.55142,-3.0322 2.70528,-3.79596 2.0724,-10.287317 -0.376,-3.856571 -1.30701,-19.251947 -2.06892,-34.211947 -1.35264,-26.559037 -2.51445,-33.67805 -5.34332,-32.741224 -0.63224,0.209378 -1.46357,3.516774 -1.8474,7.349769 -1.52726,15.251446 -9.17658,19.783487 -19.51886,11.564471 -5.35752,-4.257615 -8.0263,-1.150954 -8.04399,9.363775 -0.0137,8.149529 2.40826,9.175388 9.2781,3.929876 12.40827,-9.474417 17.23753,-1.913966 18.171,28.44762 l 0.54668,17.780957 -2.75238,2.75238 c -2.73467,2.73466 -2.8648,2.75238 -20.22309,2.75238 -19.90264,0 -19.92215,0.006 -15.65517,5.18305 10.28317,12.47527 -10.82827,27.33827 -29.39339,20.6937 z m 22.56722,-3.80923 c 4.24361,-2.19445 6.64772,-5.09737 7.42019,-8.95974 0.68816,-3.44078 0.45078,-3.78095 -6.49844,-9.31246 -5.56163,-4.427 -0.16198,-5.86715 22.13333,-5.90321 21.58479,-0.0349 20.5205,1.20138 19.69317,-22.875726 -0.81238,-23.641822 -1.72333,-26.167609 -9.44934,-26.200054 -3.12039,-0.0131 -4.53767,0.72189 -7.16741,3.717 -3.80755,4.336564 -5.87864,4.679399 -8.05473,1.333333 -3.87884,-5.96431 -2.94082,-19.814205 1.65311,-24.408128 l 2.16226,-2.162266 4.01762,4.351863 c 4.99056,5.40575 9.92267,5.967738 14.02605,1.598197 3.0846,-3.284673 4.11885,-41.4721446 1.20234,-44.3936806 -1.82112,-1.8242578 -27.45776,-2.4922891 -37.28753,-0.9716262 -11.49142,1.7777221 -14.09538,7.2745528 -7.10926,15.0073498 6.27371,6.944244 3.23621,10.666992 -8.72711,10.6959 -14.2757,0.03449 -18.47771,-3.386344 -12.33949,-10.045529 C 148.48872,7.7969204 140.6961,3.2889793 108.8,3.2492676 91.054173,3.2271735 92.394205,1.5922249 91.605996,24.227364 90.741536,49.052226 90.133512,50.432937 83.485873,42.666666 72.452764,29.77696 57.849898,53.507328 66.400001,70.432041 c 4.727847,9.358654 16.8,13.133558 16.8,5.253279 0,-6.256436 7.300022,-5.755479 7.556412,0.518551 1.164645,28.499619 1.670987,34.783809 2.902054,36.017259 0.977141,0.97904 7.160903,1.56372 21.325533,2.01634 10.97213,0.35061 20.10272,0.71061 20.29019,0.8 1.4591,0.69573 -0.90567,5.21243 -3.33737,6.37436 -6.04747,2.88963 -6.08404,10.83317 -0.068,14.77501 7.07509,4.63578 22.86885,5.77096 29.87613,2.14735 z M 140.8,134.2675 c -7.1301,-2.13124 -9.68411,-6.5439 -4.85109,-8.38141 2.99426,-1.13841 5.91776,-6.11578 5.91776,-10.0752 0,-4.92937 -3.60479,-6.08214 -21.81237,-6.97532 -14.89213,-0.73053 -21.636982,-2.1419 -21.952079,-4.59349 -0.01711,-0.13315 -0.478532,-6.242081 -1.025377,-13.575414 C 95.937864,75.392643 93.774053,66.936554 90.399831,64.573157 86.991747,62.186042 86.500909,62.386498 80.891365,68.456354 73.716881,76.219568 68.394713,70.943661 69.550229,57.213797 70.579334,44.98594 74.753388,41.492069 80.772914,47.819904 90.87957,58.444206 95.972903,52.736596 97.082111,29.543751 98.097138,8.3201896 97.392259,9.0384845 117.09686,9.1480552 c 20.63039,0.1147188 25.86548,2.7903688 14.4076,7.3637108 -7.85595,3.135657 -19.42986,11.331558 -19.47067,13.787893 -0.0186,1.118146 2.32198,4.238146 5.20125,6.933333 2.87927,2.695188 6.44094,7.328754 7.91483,10.296813 1.47389,2.96806 4.56243,7.778177 6.86342,10.689149 6.11902,7.741137 6.65338,9.144915 6.65338,17.478514 0,14.329116 -8.11611,25.294132 -13.27285,17.931858 -2.62958,-3.754252 -2.13684,-8.805187 1.06356,-10.902167 7.2449,-4.747044 5.30749,-8.885317 -6.0032,-12.822684 -10.97322,-3.819893 -14.97692,-0.649249 -10.05418,7.962191 0.83842,1.466667 1.54141,4.63504 1.5622,7.040829 0.0726,8.405598 4.65266,17.029665 10.70664,20.160295 13.26534,6.85977 22.72344,-7.547849 34.95659,-53.249751 3.64043,-13.600304 4.2436,-14.99662 7.17457,-16.60898 7.44932,-4.097947 7.17879,-13.445478 -0.53692,-18.551487 -8.48744,-5.616722 -5.70586,-7.0096726 15.6065,-7.8153834 20.54446,-0.7766807 20.00301,-1.3160026 19.34975,19.2734374 -0.65115,20.522959 -1.52614,22.114436 -8.00012,14.55104 -12.23909,-14.298617 -25.79384,9.740865 -16.40576,29.095765 4.52363,9.326131 11.55059,10.354827 16.25599,2.379761 4.94067,-8.373805 7.48678,-3.542509 8.11977,15.407383 0.66035,19.769265 1.95738,18.558635 -20.70098,19.321975 -10.89271,0.36697 -18.89393,1.1133 -20.3423,1.89746 -5.14506,2.78559 -4.25943,10.89956 1.58894,14.55755 8.61139,5.38618 -6.67652,12.60505 -18.93487,8.94094 z m 17.33334,-3.25341 c 2.53325,-1.29714 2.34643,-2.39684 -0.6826,-4.01792 -5.11261,-2.73619 -6.85098,-10.28628 -3.53396,-15.34871 2.22738,-3.3994 7.73527,-4.58669 25.81656,-5.56505 7.62666,-0.41268 14.46666,-1.22881 15.2,-1.81364 1.61076,-1.28457 1.86455,-26.04347 0.29245,-28.530241 -0.95669,-1.513298 -4.13939,0.97699 -4.25853,3.332062 -0.22089,4.366515 -11.61602,3.13149 -15.8763,-1.720703 -14.07827,-16.034258 0.003,-52.24573 15.14608,-38.949888 5.98041,5.250871 6.2998,4.731064 5.87531,-9.562037 -0.50071,-16.859722 -0.0833,-16.455127 -17.48321,-16.947645 -13.71749,-0.388286 -17.18641,0.885768 -11.17351,4.103773 6.92751,3.707493 7.24818,14.61724 0.6113,20.797789 -4.52221,4.211284 -4.92224,5.093704 -8.97959,19.80788 -5.8698,21.287105 -10.10134,32.464948 -15.77185,41.662247 -3.80694,6.174673 -4.59146,8.200863 -3.66437,9.464043 6.61629,9.01481 6.81446,11.25271 1.51575,17.11775 -2.54075,2.81231 -3.53634,4.68006 -2.85684,5.35956 2.63437,2.63437 15.25388,3.15048 19.82331,0.81073 z m -42.97575,-26.43197 c 1.33692,-0.84564 1.28477,-1.28667 -0.36809,-3.11306 -2.58538,-2.856809 -4.81867,-9.377221 -4.87601,-14.236214 -0.0258,-2.181934 -1.07276,-5.935454 -2.32668,-8.341154 -2.47265,-4.743878 -1.70162,-10.963319 1.71015,-13.794837 2.87917,-2.389498 24.03637,6.203154 24.03637,9.761979 0,3.320079 -2.89429,9.198838 -5.25457,10.67286 -2.54181,1.587385 -2.87736,4.321637 -0.74729,6.089434 3.54196,2.939568 6.74108,-2.076377 9.33549,-14.637264 l 1.35473,-6.558953 -3.40664,-4.545789 c -1.87366,-2.500184 -6.12256,-8.625789 -9.442,-13.612456 C 121.8536,47.28 117.05171,41.236338 114.50218,38.836307 c -4.46285,-4.201152 -5.41985,-6.751216 -3.96067,-10.553766 0.92138,-2.401086 13.68089,-11.935593 18.12176,-13.541431 7.31686,-2.645811 2.04939,-4.044028 -15.30535,-4.062704 -13.937596,-0.015 -13.767991,-0.234652 -14.404342,18.654927 -0.855435,25.392893 -8.676212,33.639663 -20.049352,21.141428 -3.964799,-4.35702 -4.659739,-3.935597 -6.277518,3.806792 -2.525642,12.08725 0.798944,17.384872 7.251636,11.555253 11.846781,-10.702856 18.252505,-3.064048 19.032771,22.696527 0.23989,7.92 0.627962,14.999997 0.862381,15.733337 0.506484,1.58444 12.973704,1.84008 15.384094,0.31545 z m 25.34335,-52.525677 c -11.64616,-15.61844 -12.01677,-20.68103 -1.27546,-17.42289 2.91932,0.885512 6.38786,1.615217 7.70786,1.621568 3.00264,0.01444 3.15033,4.137596 0.45585,12.726761 -2.21502,7.060795 -3.49113,7.630382 -6.88825,3.074561 z m 5.40139,-6.730976 c 1.69862,-5.101163 0.59232,-6.51549 -5.90233,-7.545696 -5.13795,-0.815002 -5.50699,-0.129935 -2.8047,5.206533 4.10102,8.098701 6.56846,8.761583 8.70703,2.339163 z m 84.18064,72.621413 c 9.97682,-4.78126 12.76351,-12.34688 4.54781,-12.34688 -3.39269,0 -5.53137,-4.34395 -4.12497,-8.378365 1.42791,-4.096088 3.74508,-5.486341 9.1574,-5.494251 14.18849,-0.02074 22.34692,-8.921646 26.62731,-29.050607 8.39275,-39.467739 -17.87772,-63.21320807 -48.95718,-44.251631 -5.82166,3.551792 -6.146,5.032039 -2.57438,11.749319 2.2631,4.256315 2.55791,6.54204 3.20595,24.856442 0.67491,19.073961 2.03118,38.700163 3.42737,49.596503 0.54008,4.21489 0.24643,5.34649 -2.11592,8.15398 -7.03148,8.35645 -1.43438,11.03183 10.80661,5.16549 z m 4.8249,-37.951102 c -6.25197,-5.8246 -10.81406,-51.815868 -5.74564,-57.922936 5.82629,-7.020257 22.76695,0.392315 27.67455,12.109305 8.92666,21.312604 -8.70007,58.138173 -21.92891,45.813631 z m 11.11574,-3.692199 c 9.88768,-6.925602 9.67704,-40.001529 -0.3101,-48.69365 -11.2386,-9.781298 -17.36434,7.575629 -12.27839,34.790071 2.71008,14.501402 6.21238,18.369578 12.58849,13.903579 z M 24,116.3058 c 10.610674,-2.57807 10.649679,-2.59821 11.006487,-5.68263 0.284711,-2.46118 -0.23885,-3.17935 -3.228474,-4.42849 -6.313796,-2.63807 -10.088363,-16.064396 -5.24494,-18.656517 3.097527,-1.657746 10.303598,-2.535425 14.442196,-1.75902 5.900097,1.106865 7.660963,14.116493 2.79389,20.641807 -3.353411,4.49594 -1.128229,7.31106 6.618212,8.37283 9.157487,1.25517 14.412369,-3.00875 9.351949,-7.58836 -4.772817,-4.31934 -5.782689,-22.772103 -2.194689,-40.102172 1.142881,-5.52012 2.795123,-15.564989 3.67165,-22.321931 1.89463,-14.605251 2.270151,-15.757726 5.273908,-16.185615 C 70.78922,27.9833 68.13073,18.16004 63.655915,18.122913 c -0.690753,-0.0057 -3.845632,-1.21595 -7.010843,-2.689374 -9.499757,-4.422195 -12.972075,-0.761823 -6.389397,6.735433 3.748167,4.268926 3.786373,8.068395 0.317681,31.59256 C 47.920627,71.751963 47.293148,73.432349 42.8086,74.55553 35.268146,76.444081 27.594402,76.945912 26.035816,75.6524 23.262304,73.35059 25.187876,25.870724 28.362918,18.271779 31.821491,9.9942492 26.386441,8.4888594 14.333338,14.385893 7.2772495,17.838115 6.6331847,20.757053 12,24.960712 l 3.466667,2.715332 0.02545,34.961977 c 0.014,19.229088 0.420602,36.909766 0.903561,39.290399 0.778827,3.83903 0.548576,4.72004 -2.0365,7.79223 -2.555681,3.03725 -2.761643,3.79954 -1.67248,6.18999 1.329095,2.91704 0.983563,2.90497 11.313298,0.39516 z M 39.229327,99.672848 c 4.292438,-3.00654 2.485264,-9.006182 -2.712784,-9.006182 -5.987359,0 -8.828497,5.135665 -4.973685,8.990476 2.12462,2.124618 4.668152,2.129818 7.686469,0.01571 z M 289.77901,121.8942 c -6.18954,-0.92776 -8.81761,-11.89972 -4.72538,-19.72802 6.23522,-11.927774 2.67453,-75.365642 -4.28669,-76.372472 -5.2022,-0.752415 -7.79827,-11.710406 -3.6613,-15.454313 3.96807,-3.5910519 12.44843,-6.4318109 20.65082,-6.9176347 11.61475,-0.6879358 12.00894,0.062812 11.39288,21.6982537 -0.17495,6.144258 3.97573,21.082741 5.69833,20.50854 2.8998,-0.966597 8.42581,-20.38595 6.78502,-23.843673 -2.66457,-5.615154 2.18186,-16.4515477 7.35773,-16.4515477 2.01434,0 16.00513,5.5172427 23.07295,9.0987787 5.83441,2.956517 6.33145,4.429251 3.65597,10.832591 -0.8877,2.124567 -1.30199,4.14915 -0.92064,4.499073 0.38135,0.349923 0.90859,0.03342 1.17163,-0.703331 1.37842,-3.860764 10.25577,-14.164151 14.79336,-17.169726 19.95211,-13.2157288 41.75203,-5.8973984 48.65689,16.334336 3.17564,10.2247 3.37807,10.272692 5.9594,1.412852 9.76414,-33.5133642 44.11662,-33.0164849 63.17482,0.91377 4.45853,7.937751 6.23089,9.981656 8.65551,9.981656 2.47459,0 6.24505,7.20446 6.55793,12.530657 0.21906,3.729168 -0.0673,4.107325 -5.22173,6.896733 -2.99943,1.623175 -7.55921,4.876039 -10.13286,7.228585 -5.61946,5.136687 -6.6316,5.215472 -12.98015,1.010367 -6.43484,-4.262262 -7.04013,-6.407665 -3.37176,-11.950952 3.74609,-5.660721 3.57616,-9.19273 -0.79329,-16.488518 -14.32106,-23.912267 -28.97023,-20.208786 -29.09021,7.354342 -0.0688,15.797075 1.98832,17.72862 31.66218,29.729917 13.75597,5.563467 20.03315,11.36813 20.0203,18.513277 -0.0386,21.474209 -28.41436,34.187589 -45.14255,20.225519 -1.65835,-1.38413 -3.84438,-2.51659 -4.85784,-2.51659 -2.25033,0 -10.56665,-5.21875 -13.38251,-8.39793 -2.5722,-2.9041 -0.8439,-5.696585 7.67578,-12.402074 6.61139,-5.203549 6.62507,-5.290021 1.26906,-8.022455 -5.94965,-3.035284 -12.27205,-9.839042 -14.45534,-15.555908 -2.35711,-6.172018 -2.80533,-5.541567 -6.68692,9.40566 -12.01015,46.248657 -40.61969,57.929087 -57.67785,23.548167 -8.53077,-17.193881 -12.40896,-54.426813 -7.04583,-67.644297 0.71265,-1.756338 -5.53499,-1.040221 -10.09005,1.156542 -9.26747,4.469411 -12.58644,53.873628 -4.25657,63.360822 7.58188,8.635283 6.95617,18.005433 -1.35728,20.325623 -10.59764,2.95767 -37.36854,4.65801 -48.07381,3.05338 z m 23.22683,-6.62699 c 2.38737,-2.63801 1.47382,-4.03263 -4.24832,-6.48542 -6.62206,-2.83855 -6.89085,-3.83122 -6.89085,-25.448715 0,-25.430719 0.62573,-25.635768 11.536,-3.78029 8.38392,16.794674 10.35099,23.418425 8.64532,29.111455 -1.77434,5.92223 -0.85509,7.60243 4.15937,7.60243 10.67635,0 14.77212,-4.25089 10.30568,-10.69596 -13.41245,-19.354177 -7.09695,-74.546168 9.02697,-78.887889 8.64594,-2.328109 6.50197,-7.243905 -5.10159,-11.697191 -10.61817,-4.075107 -18.12557,-1.003195 -12.56484,5.141341 2.30968,2.552171 2.28,2.758888 -1.98031,13.790237 -2.03871,5.278878 -4.25297,13.11853 -4.92059,17.421449 C 318.8628,64.937131 317.54169,66.557876 313.91259,60 307.37196,48.180929 301.92577,24.769797 303.9597,17.216327 c 2.05521,-7.6324488 -0.68382,-9.4540849 -11.29664,-7.5130303 -9.00119,1.6462903 -13.19639,3.8465363 -13.19639,6.9210763 0,1.94293 0.78815,2.717431 3.46667,3.406649 2.05817,0.529594 3.97871,1.95048 4.72693,3.497164 5.28716,10.929268 7.33264,72.821169 2.71633,82.190254 -2.83808,5.76008 -2.30567,8.07966 2.31638,10.09176 5.32427,2.31779 18.03129,1.97812 20.31286,-0.54299 z m 79.31409,-0.22208 c 20.73871,-10.03944 32.66956,-77.37111 17.0644,-96.302872 -9.32335,-11.310839 -26.94796,-10.9584999 -39.07545,0.781169 -20.68874,20.027146 -18.34524,66.923394 4.53423,90.735343 4.85848,5.0565 6.81385,6.20929 11.75346,6.9293 0.5481,0.0799 3.12362,-0.88443 5.72336,-2.14294 z M 380.96212,104.01956 C 363.12726,87.90684 359.48379,45.465542 374.47351,28.436326 397.89967,1.822804 415.26083,31.148649 403.36919,77.245879 395.99178,105.844 390.39017,112.53724 380.96212,104.01956 Z m 8.9707,-4.237481 c 15.14033,-23.107072 16.31028,-76.315412 1.67803,-76.315412 -20.35765,0 -28.17183,36.48406 -14.05026,65.599999 6.25071,12.887734 9.24797,15.483624 12.37223,10.715413 z m 81.75281,15.893361 c 9.14503,-3.11603 16.84771,-11.63169 16.84771,-18.625928 0,-6.930629 -3.5248,-9.740202 -21.33333,-17.004524 C 439.34176,68.681262 436.30017,64.966326 437.63176,43.930952 439.4118,15.811418 455.56497,9.4495307 471.401,30.631016 c 9.16636,12.260461 10.94905,18.13835 7.53234,24.83565 -3.99663,7.834042 -0.83358,12.43397 5.19485,7.554712 1.54283,-1.24873 5.32515,-3.954133 8.40515,-6.012008 3.08,-2.057875 5.6,-4.238398 5.6,-4.845605 0,-2.441094 -2.25888,-5.065505 -5.26066,-6.11193 -2.42444,-0.845165 -4.03701,-2.820566 -6.83988,-8.378862 -23.82455,-47.2458552 -59.94778,-34.0221092 -56.08993,20.533018 1.11293,15.738375 4.50625,19.471261 22.85714,25.144389 18.8196,5.818034 27.84466,11.745757 25.24042,16.578091 -5.85311,10.860799 -18.53194,10.585189 -20.59309,-0.44765 -1.64746,-8.818394 -6.20994,-9.729924 -15.94439,-3.185502 -6.00662,4.038221 -4.73155,11.356181 1.69753,9.742581 1.70805,-0.42869 3.84169,0.71417 8.06759,4.32134 8.10075,6.91467 12.42324,8.04014 20.41756,5.3162 z M 316.97899,101.33333 c -0.51226,-3.855092 -9.43534,-22.399997 -10.778,-22.399997 -3.37503,0 0.22733,22.261577 3.96303,24.490407 3.45418,2.06087 7.21337,0.90778 6.81497,-2.09041 z m 153.61575,-0.75972 c 2.23478,-1.959992 1.55607,-3.919465 -1.9036,-5.495797 -4.9207,-2.242019 -6.82447,-1.597936 -6.82447,2.308853 0,5.978544 3.91512,7.408104 8.72807,3.186944 z"
       id="path2" />
  </g>
</svg>
