<?xml version="1.0" encoding="UTF-8" standalone="no"?>
<!-- Created with Inkscape (http://www.inkscape.org/) -->

<svg
   version="1.1"
   id="svg1"
   width="419.20001"
   height="428.79999"
   viewBox="0 0 419.20001 428.79999"
   sodipodi:docname="hypnos_logo.svg"
   inkscape:version="1.3.2 (091e20e, 2023-11-25, custom)"
   xmlns:inkscape="http://www.inkscape.org/namespaces/inkscape"
   xmlns:sodipodi="http://sodipodi.sourceforge.net/DTD/sodipodi-0.dtd"
   xmlns:xlink="http://www.w3.org/1999/xlink"
   xmlns="http://www.w3.org/2000/svg"
   xmlns:svg="http://www.w3.org/2000/svg">
  <sodipodi:namedview
     id="namedview1"
     pagecolor="#ffffff"
     bordercolor="#000000"
     borderopacity="0.25"
     inkscape:showpageshadow="false"
     inkscape:pageopacity="0.0"
     inkscape:pagecheckerboard="true"
     inkscape:deskcolor="#d1d1d1"
     inkscape:export-bgcolor="#ffffff00"
     inkscape:clip-to-page="false"
     inkscape:zoom="1.9169777"
     inkscape:cx="209.7051"
     inkscape:cy="214.39999"
     inkscape:window-width="2048"
     inkscape:window-height="1018"
     inkscape:window-x="-6"
     inkscape:window-y="-6"
     inkscape:window-maximized="1"
     inkscape:current-layer="g1" />
  <defs
     id="defs1">
    <filter
       inkscape:label="Fast Crop"
       inkscape:menu="Fill and Transparency"
       inkscape:menu-tooltip="Does not filter but adds a filter region"
       style="color-interpolation-filters:sRGB;"
       id="filter2"
       x="0"
       y="0"
       width="1"
       height="1"
       inkscape:auto-region="false">
      <feComposite
         in2="SourceGraphic"
         operator="arithmetic"
         k4="1"
         result="result1"
         id="feComposite1" />
      <feMerge
         id="feMerge2"
         result="fbSourceGraphic">
        <feMergeNode
           in="result1"
           id="feMergeNode1" />
        <feMergeNode
           in="SourceGraphic"
           id="feMergeNode2" />
      </feMerge>
      <feColorMatrix
         result="fbSourceGraphicAlpha"
         in="fbSourceGraphic"
         values="0 0 0 -1 0 0 0 0 -1 0 0 0 0 -1 0 0 0 0 1 0"
         id="feColorMatrix2" />
      <feFlood
         id="feFlood2"
         result="result1"
         flood-color="rgb(200,55,55)"
         flood-opacity="1"
         in="fbSourceGraphic" />
      <feImage
         id="feImage2"
         xlink:href=""
         result="result2" />
      <feBlend
         id="feBlend2"
         result="result4"
         in2="result1"
         mode="multiply" />
      <feMerge
         id="feMerge3"
         result="fbSourceGraphic">
        <feMergeNode
           id="feMergeNode3"
           in="result1" />
        <feMergeNode
           id="feMergeNode4"
           in="fbSourceGraphic" />
      </feMerge>
      <feColorMatrix
         result="fbSourceGraphicAlpha"
         in="fbSourceGraphic"
         values="0 0 0 -1 0 0 0 0 -1 0 0 0 0 -1 0 0 0 0 1 0"
         id="feColorMatrix7" />
      <feColorMatrix
         id="feColorMatrix8"
         type="saturate"
         values="1"
         in="fbSourceGraphic"
         result="fbSourceGraphic" />
      <feColorMatrix
         result="fbSourceGraphicAlpha"
         in="fbSourceGraphic"
         values="0 0 0 -1 0 0 0 0 -1 0 0 0 0 -1 0 0 0 0 1 0"
         id="feColorMatrix13" />
      <feColorMatrix
         id="feColorMatrix14"
         type="saturate"
         values="1"
         in="fbSourceGraphic" />
    </filter>
  </defs>
  <g
     id="g1"
     style="filter:url(#filter2)">
    <path
       style="display:inline;fill:#e0c813"
       d="m 45.866668,426.7929 c -5.692033,-1.00563 -5.59697,-5.13705 0.415092,-18.03994 8.413433,-18.05662 22.985079,-60.37058 26.155905,-75.95297 C 75.3082,318.69332 65.221629,298.1618 37.240477,261.15507 15.237187,232.05441 10.728191,223.5413 5.8250096,201.8418 -4.2580813,157.21811 2.9794041,115.85342 26.765894,82.157501 49.388348,50.110558 95.00249,19.930566 138.66667,8.1198381 181.50148,-3.466552 218.14446,-2.1826736 262.93334,12.473831 c 62.11287,20.325524 93.12424,50.033743 106.63618,102.155129 2.29818,8.86506 2.90424,14.35254 3.65198,33.06666 0.7868,19.69162 1.21844,23.35937 3.52682,29.96839 3.56602,10.20972 8.9358,17.74339 24.09062,33.79856 14.19431,15.03759 17.87271,20.9867 16.99989,27.49407 -0.83209,6.20368 -4.15978,9.97924 -14.97816,16.99407 -14.29569,9.26956 -14.59399,9.51961 -14.59399,12.23302 0,1.36628 1.2,5.19756 2.66666,8.51395 3.78454,8.5575 3.53151,12.47223 -1.14038,17.64346 -3.54739,3.92652 -3.75753,4.54422 -3.08094,9.05607 1.03068,6.8731 0.0788,9.45421 -5.9362,16.09616 -3.47553,3.8378 -5.34647,6.87172 -5.41721,8.78458 -0.20526,5.54976 0.28959,10.41492 1.7961,17.65844 3.12288,15.01524 1.33125,26.56609 -5.02727,32.4115 -9.91221,9.1123 -32.20064,10.93235 -68.66076,5.60677 -8.21334,-1.19969 -19.97334,-2.43581 -26.13334,-2.74693 -9.50212,-0.47993 -11.76274,-0.27073 -14.91207,1.37996 -5.03333,2.63815 -8.09725,7.58401 -9.98966,16.12557 -0.87168,3.93437 -2.4136,10.96343 -3.42649,15.62013 -1.23404,5.67345 -2.65538,9.2805 -4.30821,10.93333 l -2.4666,2.4666 -96.31515,-0.14042 c -52.973339,-0.0772 -97.995159,-0.43723 -100.048492,-0.8 z M 194.79201,195.292 c 7.2013,-3.27023 10.19661,-9.94015 6.008,-13.37855 -1.02667,-0.84278 -3.06667,-2.48801 -4.53334,-3.65606 -2.18313,-1.73866 -2.4528,-2.47433 -1.48721,-4.05724 1.04512,-1.71326 3.31065,-1.99424 19.89018,-2.46682 25.13536,-0.71646 23.51264,0.91202 23.03113,-23.11296 -0.33322,-16.62652 -0.57585,-18.61351 -2.60623,-21.34349 -1.53194,-2.0598 -3.38422,-3.12339 -5.86666,-3.36866 -3.14158,-0.31039 -4.14995,0.24638 -7.52266,4.1537 l -3.89479,4.51213 -2.64612,-2.64612 c -3.60682,-3.60681 -5.38026,-12.13567 -3.90166,-18.76391 2.13406,-9.56654 6.56972,-12.656881 10.2045,-7.1095 5.60422,8.55312 15.37759,6.00935 15.30835,-3.9844 l -0.0245,-3.536789 -2.29384,3.956879 c -1.26162,2.17628 -2.9543,4.21031 -3.76151,4.52007 -0.83994,0.32231 -3.50407,-1.53211 -6.22885,-4.3357 -4.08995,-4.208248 -5.17193,-4.795805 -7.67469,-4.167652 -6.51948,1.636285 -9.80098,8.143912 -9.83534,19.504692 -0.0507,16.75265 10.07477,26.17006 17.18769,15.98583 7.00454,-10.02904 9.85249,-4.83059 9.27251,16.92537 -0.28485,10.68551 -0.69284,13.48232 -2.1839,14.97093 -1.44415,1.44178 -4.9557,2.03237 -16.53333,2.78063 -8.08485,0.52252 -16.50102,1.41339 -18.70259,1.97971 -7.89913,2.03193 -8.82353,8.79015 -1.87873,13.73528 6.98236,4.97188 0.87877,10.67256 -11.43016,10.67563 -13.75814,0.003 -20.50595,-6.01682 -12.22609,-10.90786 14.73924,-8.70668 2.18086,-15.72068 -28.19822,-15.74905 -6.66352,-0.006 -8.9994,-0.40573 -10.09567,-1.72665 -0.95189,-1.14695 -1.67414,-6.76127 -2.17146,-16.87958 -0.79141,-16.10158 -2.29277,-21.94347 -6.17318,-24.0202 -2.86353,-1.53251 -5.46723,-0.18064 -9.28015,4.81836 -1.96036,2.57016 -3.58794,3.66976 -5.11003,3.45234 -7.81154,-1.11581 -8.0772,-26.51323 -0.32606,-31.17248 1.59531,-0.958957 2.52843,-0.40194 5.70314,3.40445 10.12681,12.14179 13.97621,7.15322 15.34813,-19.890112 0.60195,-11.865557 1.2302,-16.657954 2.27014,-17.316999 0.79082,-0.501171 8.90612,-0.91857 18.03399,-0.927554 12.80358,-0.0126 17.06929,0.335022 18.66667,1.521193 2.89037,2.146317 1.12787,4.694911 -5.5757,8.062473 -7.7072,3.871743 -15.04535,9.291252 -15.79998,11.668904 -0.83397,2.627604 0.99054,5.554069 4.84014,7.763434 1.65981,0.952599 4.20444,4.050023 5.65474,6.883161 1.45031,2.83314 4.58437,7.79117 6.96459,11.01783 10.9436,14.83532 10.21,13.03702 8.71986,21.37536 -1.82963,10.23798 -6.11799,18.52246 -9.80936,18.95022 -2.01759,0.2338 -3.44582,-0.48328 -5.06667,-2.54385 -3.32443,-4.22634 -2.88389,-7.72279 1.47625,-11.71652 2.05333,-1.88078 3.73333,-4.22185 3.73333,-5.20238 0,-2.4638 -8.96532,-6.3003 -14.93333,-6.39038 -4.14829,-0.0626 -4.845,0.24361 -5.1314,2.25536 -0.18226,1.28029 0.41774,3.77645 1.33334,5.54703 0.9156,1.77057 1.66472,5.54135 1.66472,8.37951 0,10.77014 8.08151,20.2108 16.37152,19.12489 9.67441,-1.26726 16.97504,-14.87411 26.33835,-49.08917 2.86627,-10.4738 5.76788,-19.713796 6.44804,-20.533333 0.68015,-0.819536 2.0791,-1.490066 3.10876,-1.490066 3.1619,0 4.59806,-2.818779 3.94532,-7.74354 -0.49358,-3.723915 -1.50764,-5.315311 -5.73908,-9.006484 -4.93884,-4.308256 -5.06513,-4.558212 -3.23354,-6.399999 1.66364,-1.672903 3.92161,-1.916643 17.75549,-1.916643 14.08936,0 16.09872,0.225654 18.09397,2.031986 1.23448,1.117593 2.24451,2.836757 2.24451,3.820364 0,0.983607 1.0344,5.083837 2.29867,9.111621 2.08452,6.641002 2.3924,7.080069 3.30481,4.71297 1.30766,-3.392529 0.23216,-20.986447 -1.40335,-22.957112 -0.99448,-1.198273 -4.67532,-1.506376 -17.3974,-1.456244 -25.14431,0.09908 -29.4694,1.385428 -29.4694,8.764643 0,2.187492 1.08797,4.050367 3.73334,6.392394 4.48246,3.968469 4.71816,6.485376 0.84483,9.021454 -4.00142,2.619951 -18.57319,2.568383 -23.56638,-0.0834 -5.37842,-2.856367 -5.45684,-4.70131 -0.37912,-8.919145 6.16945,-5.124691 6.07946,-10.577231 -0.2286,-13.849917 -5.0586,-2.624458 -39.25715,-2.724352 -41.8608,-0.122276 -1.49323,1.49233 -1.87283,4.597437 -2.21678,18.133333 -0.66963,26.352314 -1.52535,28.160974 -9.3113,19.680464 -5.11965,-5.576358 -6.54959,-5.926782 -10.73868,-2.631643 -7.134528,5.612023 -9.195689,20.001233 -4.35446,30.399013 3.66093,7.8628 9.31868,10.2463 13.15506,5.54198 6.82002,-8.36297 6.34672,-8.02979 8.45578,-5.95254 1.65933,1.6343 2.01962,4.43494 2.53864,19.73333 0.33267,9.8058 0.96979,18.63161 1.41581,19.61292 1.32896,2.9239 3.56624,3.31371 21.97933,3.82956 9.68,0.2712 18.44,0.93593 19.46666,1.47719 2.9778,1.5699 2.18816,3.86603 -2.36595,6.8798 -4.74138,3.13769 -6.02481,5.74109 -4.36197,8.84811 1.37187,2.56338 5.89038,5.8188 10.19459,7.34484 5.37806,1.90677 17.58142,1.50675 22.52534,-0.73836 z m -20.97203,-86.17481 c -1.90722,-2.17221 -4.88555,-6.97939 -6.6185,-10.682614 -3.29528,-7.041846 -3.2923,-10.735385 0.008,-9.333221 1.02172,0.434151 4.94845,1.678731 8.72607,2.765732 3.77761,1.087001 7.36591,2.47389 7.974,3.081975 1.22827,1.228273 -1.71578,14.196168 -3.79042,16.695958 -1.7487,2.10705 -2.49062,1.80929 -6.29867,-2.52783 z"
       id="path16" />
    <path
       style="display:inline;fill:#de600b"
       d="m 50.16567,426.9388 c -10.342603,-0.70889 -10.621129,-2.21465 -3.360655,-18.16833 5.901425,-12.9674 11.55198,-28.11465 18.591327,-49.83715 7.289627,-22.49483 8.515772,-27.95697 7.752332,-34.53451 -1.541241,-13.27878 -12.29032,-32.46135 -35.638027,-63.59882 -10.941712,-14.59232 -16.811407,-23.55181 -20.964379,-32 C -0.1845365,194.76535 -3.0435373,155.61579 8.5619108,119.46666 12.185601,108.17945 21.743814,89.603065 28.879961,79.978544 48.065311,54.103267 81.843669,29.563044 117.51851,15.58199 c 55.38495,-21.7054889 112.87018,-18.7652387 175.05561,8.95373 18.24153,8.131111 28.51462,15.069297 41.84977,28.264278 16.72863,16.552802 24.82383,30.453341 33.54427,57.600002 3.19351,9.94135 3.52156,12.40742 4.82434,36.26666 1.94511,35.62307 3.30596,38.90589 26.12342,63.01838 13.65125,14.42605 19.19062,22.36342 19.20742,27.52238 0.0213,6.53449 -6.15138,12.90782 -22.31414,23.03958 -4.26642,2.67444 -7.86475,5.73212 -8.16813,6.94087 -0.29824,1.18829 0.92051,5.3866 2.70834,9.32957 4.60262,10.15087 4.28195,12.39471 -2.88446,20.18365 -2.39454,2.60254 -2.49928,3.13477 -1.28036,6.50563 1.85507,5.13012 0.74298,8.29485 -5.36934,15.27974 -3.14861,3.5981 -5.58012,7.52973 -5.98218,9.67288 -0.38971,2.07734 0.28049,8.94738 1.57811,16.17679 3.44712,19.20487 2.78425,24.97777 -3.69107,32.14517 -10.05897,11.13409 -28.35193,12.72389 -74.46377,6.47148 -19.5146,-2.64602 -31.52314,-2.79062 -36.47831,-0.43923 -5.35771,2.5424 -7.6449,7.25618 -11.16416,23.00872 -3.67179,16.43529 -4.85194,19.77329 -7.49003,21.18515 -1.80445,0.96571 -179.14182,1.17837 -192.95817,0.23138 z m 84.14246,-142.19831 c 9.32869,-1.51361 17.1201,-5.42995 24.62389,-12.37713 6.4857,-6.00461 12.80132,-16.52976 12.80132,-21.33374 0,-3.73313 -3.491,-6.5161 -9.25645,-7.37909 -2.82895,-0.42345 -8.37454,-1.89805 -12.32352,-3.27689 -3.94898,-1.37884 -8.76813,-2.50698 -10.70923,-2.50698 -8.30706,0 -24.66729,-6.41484 -33.7847,-13.24697 -4.7444,-3.55521 -7.812805,-3.47258 -13.83272,0.37252 -2.691361,1.71905 -8.940662,4.59737 -13.887336,6.39627 -9.689044,3.5235 -13.945249,6.61902 -13.929372,10.13078 0.01902,4.20762 6.730252,13.98083 15.876725,23.12045 7.320019,7.31452 11.016897,10.07526 18.246599,13.62609 8.712294,4.279 19.388554,7.34625 26.133334,7.508 1.76,0.0422 6.27866,-0.42278 10.04146,-1.03331 z m 90.37864,-41.06363 c 6.50865,-1.8236 10.93848,-6.31742 13.76586,-13.96473 2.50601,-6.77806 2.92043,-7.25391 9.69095,-11.12762 6.80696,-3.89454 8.51547,-6.76343 9.51995,-15.9856 0.95827,-8.79802 1.84229,-9.98048 5.89479,-7.88486 2.52587,1.30618 3.95095,1.37116 7.95577,0.36273 4.47552,-1.12694 5.33817,-0.99602 10.43792,1.58422 l 5.55919,2.8127 14.91107,-1.02464 c 8.20109,-0.56355 17.40831,-1.77696 20.46049,-2.69648 7.29743,-2.19847 12.05058,-6.20811 12.05058,-10.16556 0,-3.93956 -4.42147,-9.12064 -9.10157,-10.66521 -3.82427,-1.26212 -4.91498,-3.85527 -2.07927,-4.94343 2.22214,-0.85272 7.11968,1.32914 11.23925,5.00709 2.54955,2.27624 3.89821,2.81799 5.23467,2.10274 2.68519,-1.43707 8.51476,-14.92017 9.7398,-22.52701 1.82517,-11.33326 -1.02936,-26.89957 -6.02057,-32.83128 -2.0934,-2.48786 -2.90793,-5.04225 -3.61319,-11.33099 -1.01098,-9.01495 -2.53855,-11.508113 -8.19476,-13.374833 -3.61887,-1.194335 -3.98768,-1.791073 -3.66678,-5.932876 0.50318,-6.494419 -8.55532,-21.793914 -18.40843,-31.091223 -6.47589,-6.110585 -9.80051,-6.997437 -12.99581,-3.466666 -2.67832,2.959504 -3.39071,2.719961 -5.76775,-1.939428 -5.97385,-11.709713 -22.88315,-19.91687 -34.50121,-16.745632 -2.65511,0.724731 -3.08926,0.433596 -4.54343,-3.046724 -1.82894,-4.377259 -4.75572,-5.922047 -16.09109,-8.49305 -12.74978,-2.891809 -20.56856,-3.267484 -28.19111,-1.354519 -7.33369,1.840473 -12.77208,6.180859 -12.77208,10.193409 0,1.125886 -0.46464,3.269145 -1.03252,4.762798 -1.38503,3.642896 -4.04677,2.528729 -4.90645,-2.053773 -0.82666,-4.406446 0.004,-7.111628 3.43898,-11.193304 2.25754,-2.682934 2.4213,-3.293591 1.02678,-3.828718 -0.91253,-0.35017 -3.85016,0.200086 -6.52807,1.22279 -4.044,1.544415 -5.56167,1.651914 -8.95758,0.634474 -6.09775,-1.826928 -12.42736,-1.48664 -16.89588,0.908344 -2.18919,1.173334 -6.01773,2.133334 -8.50788,2.133334 -2.49015,0 -6.42028,0.757321 -8.73362,1.682935 -5.02566,2.010873 -7.05465,5.711303 -8.14262,14.850397 -0.41904,3.52 -1.24491,7.326506 -1.83526,8.458902 -2.00588,3.847606 -3.99255,-0.962386 -3.99255,-9.666488 0,-4.253248 -0.46013,-8.017549 -1.0225,-8.365115 -1.5199,-0.939347 -14.83363,6.127544 -20.08682,10.662026 -2.51679,2.172458 -5.76488,6.296093 -7.21797,9.163633 -3.926443,7.748464 -8.234833,6.583729 -5.971254,-1.614275 2.37882,-8.615375 -2.088125,-6.022911 -19.568127,11.356683 -11.601288,11.534647 -12.613143,12.842513 -10.804711,13.965554 1.097409,0.681494 3.497409,2.199079 5.333333,3.372413 3.458849,2.210539 10.271378,14.045447 10.271378,17.843714 0,3.977438 -3.697398,1.431148 -6.549396,-4.510381 -3.73694,-7.785121 -7.127024,-10.787047 -12.919112,-11.439899 -4.171047,-0.470138 -5.031707,-0.162451 -8.084306,2.890148 -4.781299,4.781299 -12.140217,20.41193 -12.767107,27.11785 -0.279285,2.98754 -1.161556,6.3787 -1.960602,7.53591 -2.050846,2.9701 -1.804267,7.4254 0.680522,12.29599 1.173333,2.29992 2.133333,4.93587 2.133333,5.85765 0,2.75766 -3.167767,3.19638 -4.928507,0.68257 -3.523367,-5.03031 -6.81566,-1.17843 -8.922258,10.43875 -2.00353,11.0488 -0.527002,15.41745 7.350097,21.74697 1.874383,1.50613 2.129696,2.24782 1.17129,3.40263 -0.67405,0.81218 -2.270688,1.6255 -3.548084,1.80739 -5.106224,0.72707 -5.063413,15.14351 0.06306,21.23598 2.325696,2.76393 2.581094,3.64951 1.535403,5.32393 -1.783463,2.85578 -1.516378,7.22412 0.74623,12.20508 2.893571,6.36997 5.169394,8.25578 9.096879,7.53793 5.826733,-1.06498 7.128428,1.07956 3.620851,5.96535 -1.054877,1.46936 -0.926467,2.21176 0.691864,4 1.09293,1.20767 2.682323,2.19577 3.531985,2.19577 0.849661,0 7.375267,-2.58598 14.501347,-5.74662 7.126079,-3.16064 14.156508,-6.02159 15.623175,-6.35768 4.535822,-1.03936 12.595255,-6.80571 14.405891,-10.3071 2.509145,-4.85214 1.660621,-7.5165 -3.494295,-10.97204 -2.505288,-1.67939 -5.464616,-4.81514 -6.576283,-6.96833 -1.111667,-2.15319 -3.981886,-5.81231 -6.378263,-8.13138 -2.396378,-2.31906 -4.35705,-5.07906 -4.35705,-6.13333 0,-4.78777 6.581899,-0.0978 13.810611,9.84074 2.977233,4.09332 5.82235,7.4424 6.322482,7.4424 2.66787,0 6.392354,5.77115 7.089904,10.98593 0.6372,4.76363 1.44607,6.22558 5.72505,10.34741 5.16862,4.9788 16.58654,11.24227 22.72228,12.46465 l 3.52968,0.70319 -3.62064,-4.12973 c -5.43607,-6.20044 -7.77748,-12.38917 -7.82947,-20.69462 -0.0563,-8.98903 1.63518,-14.1909 5.73648,-17.64192 3.50618,-2.95025 7.31363,-3.57626 7.31363,-1.20249 0,0.82449 -1.67075,3.49883 -3.71277,5.94297 -6.82337,8.16704 -7.19749,18.22667 -0.98135,26.3871 5.48702,7.20326 23.6197,17.37085 30.97885,17.37085 2.21033,0 2.58609,-0.36278 1.93351,-1.86667 -2.2187,-5.11309 -1.75524,-8.36709 1.86991,-13.12873 1.9839,-2.60586 4.66567,-4.89132 5.95948,-5.07879 3.38937,-0.49111 3.02265,2.49582 -0.84763,6.90382 -1.76,2.00453 -3.2,4.4971 -3.2,5.53904 0,1.04195 2.12916,3.86481 4.73146,6.27304 3.65662,3.38391 6.14033,4.67121 10.93333,5.66673 15.73877,3.269 29.8335,3.42046 40.48864,0.43509 z m -42.86904,-11.22273 c -0.88799,-1.43679 1.2983,-3.95136 5.1814,-5.95939 2.58077,-1.33457 5.69894,-1.50718 17.14436,-0.94903 15.40626,0.75129 15.72779,0.65978 25.68498,-7.30985 2.74785,-2.19935 4.20075,-2.76665 5.01085,-1.95655 1.50399,1.50399 -0.93436,4.97837 -6.69071,9.53354 -5.52793,4.3744 -9.0342,5.01159 -23.74144,4.3145 -9.9453,-0.47139 -12.66055,-0.24258 -16.88615,1.423 -3.21848,1.26861 -5.27628,1.5947 -5.70329,0.90378 z m -19.4928,-20.98747 c 0.8759,-4.69819 14.07056,-7.16505 23.3898,-4.37294 3.71729,1.11373 4.47663,0.97489 8.22118,-1.50313 4.66761,-3.08888 10.82207,-5.04253 15.91279,-5.05131 3.03749,-0.005 3.75745,-0.61008 6.03809,-5.07262 2.98885,-5.84829 8.3895,-11.37009 12.71599,-13.00124 5.53463,-2.08664 13.08567,-1.41442 16.40441,1.46037 2.32825,2.0168 2.70992,2.88 1.71883,3.88733 -0.99888,1.01523 -1.97599,1.00408 -4.52477,-0.0517 -4.69375,-1.94422 -11.34095,-1.55391 -15.30124,0.89846 -3.54588,2.19575 -7.16667,7.27486 -7.16667,10.05315 0,4.02798 -3.64671,6.2659 -11.64016,7.14336 -6.19557,0.6801 -8.81685,1.55225 -12.52851,4.16847 -5.33785,3.76247 -6.39138,3.93224 -10.64274,1.715 -3.91265,-2.04059 -10.61595,-2.04328 -16.38859,-0.007 -5.80428,2.04787 -6.63329,2.01226 -6.20841,-0.26667 z M 50.877095,206.13333 c -0.246845,-0.44 -0.753665,-2.07756 -1.126266,-3.63901 -0.550783,-2.30816 -1.474846,-2.97373 -4.941886,-3.55948 -7.273357,-1.22883 -6.614356,-4.75083 0.895354,-4.78518 2.92061,-0.0134 4.495284,-1.01642 8.646239,-5.50765 2.985586,-3.23032 5.577774,-5.18075 6.295704,-4.73705 1.83164,1.13202 1.501905,2.53501 -1.530017,6.51006 -1.607726,2.10784 -3.260199,6.28834 -3.977386,10.06216 -1.088612,5.72826 -2.884283,8.11146 -4.261742,5.65615 z m 120.504385,-5.13427 c -3.30352,-1.05587 -6.87982,-3.37461 -9.96822,-6.46301 -5.06585,-5.06585 -5.17639,-5.58406 -3.38485,-15.86939 0.35406,-2.03269 -0.35808,-2.15849 -15.09507,-2.66667 -9.45517,-0.32604 -16.37141,-1.05112 -17.79443,-1.86553 -2.29037,-1.3108 -2.67445,-2.08394 -4.01244,-8.07691 -1.22011,-5.46497 -4.388,-2.03618 -7.2149,7.80911 -1.27181,4.42937 -1.79004,4.94053 -6.71157,6.61998 -7.817002,2.66752 -17.629763,2.50268 -21.265556,-0.35724 -4.070257,-3.20166 -2.11187,-4.91972 3.642645,-3.19563 4.234361,1.26865 9.035358,0.94412 15.599091,-1.05445 3.52693,-1.07391 5.75716,-4.59066 5.75716,-9.07823 0,-1.57614 1.33096,-4.02949 3.2,-5.89853 1.76,-1.76 3.2,-3.76936 3.2,-4.46525 0,-0.69589 -3.67186,-4.13897 -8.15969,-7.65128 -4.48783,-3.51232 -9.647833,-8.23558 -11.46667,-10.49613 -2.059659,-2.55986 -5.72934,-5.20852 -9.729317,-7.02232 -3.532286,-1.60172 -7.732287,-4.46901 -9.333333,-6.37174 -5.249867,-6.23912 -2.687504,-9.18605 2.908525,-3.34505 3.545901,3.70112 10.056401,7.04364 11.203242,5.7518 1.135265,-1.2788 3.250407,-25.90436 2.528314,-29.435926 -0.531782,-2.600808 -0.285828,-2.933333 2.169657,-2.933333 1.523187,0 4.699912,-0.772426 7.059392,-1.716501 4.06213,-1.625345 8.26655,-1.597105 13.46993,0.09048 1.98321,0.643206 2.3338,0.205937 2.95636,-3.687296 0.38847,-2.429373 0.39016,-7.502862 0.004,-11.274421 l -0.70256,-6.857379 -4.12047,0.658889 C 113.85421,72.509488 112,72.371421 112,71.840283 c 0,-2.14071 12.67946,-11.999035 17.16311,-13.344378 3.1902,-0.957238 11.31016,-1.414211 25.23708,-1.420285 11.29343,-0.0049 20.53343,-0.144372 20.53333,-0.309881 -10e-5,-0.16551 -0.651,-1.84551 -1.44645,-3.733334 -1.74859,-4.149898 -7.8685,-10.201481 -15.07369,-14.905388 -8.53331,-5.570979 -7.45118,-9.677121 1.36245,-5.169805 9.91391,5.069999 17.77515,15.233506 20.54693,26.564383 1.46655,5.995178 3.50109,6.651226 7.77631,2.507516 2.85482,-2.767001 5.41547,-3.769051 15.37889,-6.018158 6.57457,-1.484122 16.34777,-3.010299 21.71821,-3.391503 l 9.76444,-0.6931 5.76898,-5.768973 c 3.17293,-3.172935 6.31679,-5.586364 6.98636,-5.363175 2.40736,0.802454 2.01757,3.025434 -1.03271,5.8895 -5.8966,5.536617 -7.0886,8.276146 -5.80151,13.333349 0.63218,2.483954 1.45611,9.07628 1.83097,14.649614 0.37485,5.573333 1.17661,10.733333 1.7817,11.466666 0.62947,0.762891 3.53733,1.333333 6.79673,1.333333 3.23351,0 8.10281,0.948452 11.26173,2.193582 4.6628,1.837904 6.35551,2.021282 10.43949,1.130954 2.68088,-0.584445 6.60255,-1.339842 8.71482,-1.678659 3.25169,-0.521585 4.27568,-1.415607 6.67899,-5.831272 3.91154,-7.186783 9.38815,-11.814604 13.98153,-11.814604 4.88155,0 9.09899,1.718185 9.09899,3.706932 0,1.257495 -1.31214,1.626401 -5.78483,1.626401 -6.94926,0 -11.48331,3.151315 -13.47883,9.368241 -1.92363,5.992952 -3.68945,7.38908 -10.39733,8.220533 -10.61244,1.315428 -15.49138,4.554912 -18.80528,12.486178 -2.17115,5.1963 -3.087,5.6415 -11.62417,5.6506 -6.7206,0.007 -7.49901,0.2501 -9.9591,3.10806 -1.72553,2.00459 -2.46986,3.88947 -2.10611,5.33333 0.30941,1.22818 1.06759,4.15306 1.68484,6.49972 0.61726,2.34667 1.39869,7.01423 1.73651,10.37235 0.34918,3.47095 1.43889,7.1241 2.52528,8.46574 1.90984,2.35855 1.91314,2.35874 5.15186,0.29432 1.78244,-1.13616 5.47206,-4.78177 8.19917,-8.10136 6.80105,-8.27862 12.82365,-10.8404 20.59132,-8.75874 3.44245,0.92254 3.04686,3.59305 -0.53334,3.60031 -6.77734,0.0137 -10.61405,2.10245 -17.52115,9.53851 -5.58014,6.00748 -7.78228,7.61826 -11.79729,8.62925 -2.71506,0.68366 -5.24816,2.03425 -5.62909,3.00132 -0.38094,0.96707 -0.96192,5.22575 -1.29106,9.46374 -0.8685,11.1827 -1.18971,11.37206 -20.40337,12.02789 l -15.6247,0.53334 0.32221,2.66666 c 0.17722,1.46667 0.58554,4.44471 0.90738,6.61787 0.79536,5.37044 -2.29587,9.5089 -9.87106,13.21509 -7.37778,3.60962 -18.61445,4.44718 -26.37706,1.96611 z m 24.69996,-5.97127 c 2.99771,-1.44877 5.20505,-3.46813 6.29935,-5.76289 1.55129,-3.25309 1.54038,-3.7527 -0.13785,-6.314 -1.00234,-1.52976 -2.97064,-3.30454 -4.374,-3.94396 -3.00667,-1.36993 -3.896,-3.15373 -2.61094,-5.23701 0.72325,-1.17251 5.26691,-1.62061 20.65064,-2.0366 14.2582,-0.38555 20.10687,-0.92076 21.10737,-1.93153 1.60092,-1.61734 1.69129,-31.91545 0.11645,-39.04108 -1.94327,-8.79266 -11.06757,-10.5426 -15.79912,-3.0301 -2.60544,4.13678 -4.00261,4.28625 -6.80181,0.72764 -4.39683,-5.58965 -4.19762,-19.42566 0.35589,-24.71943 l 2.48404,-2.88787 4.89044,4.50785 c 5.42803,5.00338 8.65864,5.63564 12.15452,2.37873 3.17289,-2.95599 3.84953,-7.59414 3.92129,-26.878936 0.0461,-12.379628 -0.29894,-17.104046 -1.32421,-18.133333 -1.82767,-1.834829 -23.42807,-2.462556 -34.87417,-1.013475 -7.23056,0.915393 -8.90508,1.518719 -11.01129,3.967331 -3.16422,3.678619 -2.44865,7.080544 2.58098,12.270442 6.07633,6.269944 2.55292,9.517095 -10.3268,9.517095 -7.40425,0 -14.52809,-2.021708 -16.10298,-4.569943 -0.49392,-0.799174 1.00845,-2.94344 3.96261,-5.655653 5.59746,-5.139026 5.99522,-7.901441 1.74911,-12.147553 -2.55831,-2.558306 -4.19607,-3.120131 -10.93334,-3.750617 -11.93337,-1.116748 -32.61308,-0.286747 -34.2738,1.375613 -0.98475,0.985717 -1.54656,6.905137 -1.94816,20.526244 -0.46401,15.738212 -0.87293,19.449665 -2.30019,20.876915 -1.60335,1.60336 -1.88595,1.54895 -3.70232,-0.71281 -6.26389,-7.799816 -9.29466,-9.041187 -14.01009,-5.738376 -7.246802,5.075856 -9.665874,22.036266 -4.46457,31.301686 1.45283,2.58803 3.94764,5.6714 5.54403,6.85193 2.44498,1.80807 3.33257,1.95046 5.63074,0.90335 1.50053,-0.68369 3.72181,-2.92706 4.93618,-4.98526 2.37767,-4.02984 5.53382,-4.89414 6.84884,-1.87553 0.44726,1.02667 1.09861,9.89114 1.44746,19.69882 0.53845,15.13834 0.92142,18.11936 2.53513,19.73334 1.63722,1.63747 4.55225,1.97515 21.01623,2.43451 23.09767,0.64444 24.38856,1.23221 16.81624,7.65669 -2.86169,2.42791 -5.06667,5.20927 -5.06667,6.3911 0,10.21033 21.35311,15.84924 35.01477,9.24667 z m -24.08143,-4.06574 c -3.11725,-1.41496 -4.53334,-2.71842 -4.53334,-4.17273 0,-1.30077 1.74522,-3.28401 4.53334,-5.15161 12.3905,-8.29971 1.17378,-15.1641 -24.8628,-15.21549 -15.88967,-0.0314 -15.14574,0.9004 -16.56284,-20.74462 -1.06345,-16.24338 -1.36446,-17.92097 -3.6526,-20.35658 -3.64625,-3.88126 -7.08706,-3.40798 -11.72177,1.61231 -4.76383,5.16016 -6.85015,5.35293 -9.17964,0.8482 -2.91774,-5.64229 -3.20173,-15.60888 -0.61161,-21.46427 2.78792,-6.30257 5.22668,-6.480504 9.7934,-0.71455 6.08793,7.68664 11.42673,6.57005 13.80828,-2.88794 0.67684,-2.68795 1.50299,-11.418385 1.8359,-19.400974 0.47564,-11.405294 0.96468,-14.799366 2.28335,-15.847131 2.63175,-2.091095 32.0678,-1.843133 35.12164,0.295857 3.06224,2.144874 2.06946,4.446385 -2.78069,6.446342 -2.12884,0.877829 -6.87429,3.619946 -10.54543,6.093593 -9.00365,6.066733 -10.12471,10.607449 -3.55042,14.380571 1.86049,1.067774 4.94107,4.961583 7.542,9.532982 2.41827,4.25036 6.45442,10.26054 8.96922,13.35595 7.18833,8.84795 7.34426,9.34866 5.4522,17.50707 -3.06811,13.22939 -6.87253,19.36266 -11.16537,18.00017 -4.94364,-1.56905 -6.78671,-11.34815 -2.40114,-12.74007 1.04504,-0.33169 2.70896,-1.9724 3.6976,-3.64604 2.43811,-4.12739 0.96236,-5.83932 -7.43564,-8.62567 -8.6476,-2.86917 -10.74116,-2.79676 -12.20782,0.42221 -0.93819,2.05912 -0.85456,3.1483 0.38906,5.06667 0.87129,1.34403 1.88383,5.71069 2.25011,9.70369 1.14777,12.51276 7.30966,19.94001 16.54289,19.94001 3.58184,0 5.00458,-0.66774 8.00468,-3.75684 6.92113,-7.12646 12.9088,-21.06397 18.93217,-44.06847 5.61384,-21.440413 6.03507,-22.440125 9.87131,-23.427736 3.03446,-0.781197 3.41753,-1.326775 3.70902,-5.282434 0.40523,-5.499103 -2.00475,-10.366019 -6.20979,-12.540526 -3.47781,-1.798447 -4.25084,-5.218911 -1.42459,-6.303447 3.20163,-1.228578 17.05878,-1.987008 22.20481,-1.215313 7.44718,1.116774 13.43171,6.977504 16.41993,16.080272 2.78831,8.493777 2.80914,10.455567 0.17269,16.264082 -2.94859,6.496192 -4.81727,6.781362 -9.71066,1.481852 -3.01247,-3.262477 -4.91812,-4.431443 -7.22416,-4.431443 -4.32397,0 -9.1068,5.658733 -10.82046,12.802073 -4.52648,18.86848 9.65342,36.65285 18.19924,22.82542 2.76857,-4.47963 5.96833,-4.79184 7.11427,-0.69416 0.45118,1.61333 0.82032,9.04 0.82032,16.5037 0,18.33621 0.3851,17.95765 -19.40293,19.0737 -8.10172,0.45693 -15.83222,0.85895 -17.17889,0.89336 -3.06193,0.0782 -7.68484,4.57653 -7.68484,7.47768 0,1.19831 1.71882,4.08128 3.81961,6.4066 2.12818,2.35564 3.66193,5.07301 3.46353,6.13641 -0.98057,5.25577 -15.57482,7.39934 -24.08314,3.53727 z m 16.76671,-4.56206 c -0.0183,-0.73333 -1.21586,-3.25333 -2.66121,-5.6 -3.59759,-5.84103 -3.36197,-8.66609 1.0715,-12.84739 4.4634,-4.20954 10.85654,-5.81242 23.2755,-5.8356 13.72504,-0.0256 14.52386,-2.19439 2.35087,-6.38251 -10.7196,-3.68808 -23.53164,-5.65563 -27.75388,-4.26216 -6.951,2.29404 -10.11437,9.72532 -6.85749,16.10934 2.66008,5.21419 2.63569,11.37378 -0.0587,14.81832 -3.48825,4.45948 -2.78916,5.33334 4.26667,5.33334 4.42664,0 6.38973,-0.41112 6.36671,-1.33334 z m -42.63338,-26.81684 c 0,-0.81594 -0.94946,-3.57594 -2.10991,-6.13334 -1.16045,-2.5574 -2.12045,-6.17056 -2.13333,-8.02924 -0.0327,-4.722 -1.0025,-6.75391 -3.22343,-6.75391 -1.0478,0 -2.19644,0.75926 -2.55254,1.68724 -0.92437,2.40885 -0.77091,15.66716 0.19899,17.19296 1.84992,2.91021 9.82022,4.5629 9.82022,2.03629 z m 82.13333,-12.98414 c 0,-3.70688 -0.4659,-7.02772 -1.03534,-7.37965 -0.56944,-0.35194 -2.4656,0.0997 -4.21369,1.00371 -10.57182,5.4669 -19.88799,-4.65859 -21.14381,-22.98061 -1.04592,-15.25954 -3.71619,-12.73015 -10.22808,9.68844 -3.1389,10.80635 -4.45198,16.95229 -3.79181,17.74775 0.55544,0.66926 3.66274,1.5483 6.9051,1.9534 6.34632,0.79292 15.59082,3.29803 24.96671,6.76557 7.53379,2.78626 8.54092,1.98458 8.54092,-6.79861 z m -89.07386,-20.01726 c 0.81617,-1.95337 2.23627,-4.17595 3.15577,-4.93908 2.4632,-2.04427 8.54729,-0.86383 17.95812,3.48424 4.50749,2.08259 8.44134,3.38865 8.74189,2.90235 0.30054,-0.4863 -2.00074,-4.17182 -5.11397,-8.19005 -3.11323,-4.01824 -6.79523,-9.22588 -8.18222,-11.57255 -1.387,-2.34666 -5.0787,-6.99103 -8.20377,-10.32081 -8.25065,-8.7911 -7.89618,-12.438355 1.85227,-19.0584 3.41007,-2.315737 6.5314,-4.746426 6.93628,-5.401532 1.24262,-2.010604 -1.88008,-3.052497 -9.19997,-3.069586 -10.57868,-0.0247 -10.89174,0.404939 -11.74957,16.12504 -0.86285,15.812118 -2.28921,21.590968 -6.32542,25.627178 -3.5993,3.5993 -6.58427,3.80478 -12.12574,0.83473 -4.52253,-2.42393 -5.46656,-2.22049 -4.45695,0.96051 0.71304,2.24659 5.58266,4.43621 9.86595,4.43621 2.76616,0 8.85201,2.76684 8.85851,4.02739 0.008,1.58326 4.27334,7.70594 5.3681,7.70594 0.62522,0 1.80455,-1.59821 2.62072,-3.55158 z m -28.25947,-4.38547 c 0,-0.84538 -0.48,-1.8337 -1.06667,-2.19628 -0.58667,-0.36258 -1.06667,0.32909 -1.06667,1.53705 0,1.20795 0.48,2.19628 1.06667,2.19628 0.58667,0 1.06667,-0.69167 1.06667,-1.53705 z m 117.317,-37.129616 c -0.009,-5.426666 -0.47142,-10.586666 -1.02764,-11.466666 -1.23979,-1.961495 -18.76132,-3.021371 -20.54022,-1.242476 -0.77951,0.779512 -0.54741,2.32033 0.76667,5.089547 1.45336,3.062726 1.73282,5.424139 1.22119,10.319093 -0.64925,6.211744 -0.61218,6.331773 1.73311,5.611614 5.65166,-1.73543 12.00303,-1.808698 14.12989,-0.162999 1.17333,0.907889 2.49333,1.665972 2.93333,1.68463 0.44,0.01866 0.79265,-4.406076 0.78367,-9.832743 z m -54.7434,23.466666 c -6.0203,-8.02202 -10.26436,-19.646152 -6.84027,-18.73493 13.15893,3.501864 16.82762,4.73502 17.23349,5.792699 0.61025,1.590301 -2.38567,13.284291 -3.86227,15.075561 -1.8006,2.18434 -3.77456,1.53955 -6.53095,-2.13333 z m 5.69307,-7.82641 c 0,-1.447515 -3.17035,-3.640256 -5.26321,-3.640256 -1.64999,0 -1.39369,2.358553 0.55931,5.146846 1.34549,1.92095 2.00698,2.16351 3.2,1.1734 0.82714,-0.68647 1.5039,-1.89247 1.5039,-2.67999 z M 120.9277,148 c 0.89363,-3.33457 0.8,-6.41381 -0.24512,-8.06171 -0.71325,-1.12463 -1.69219,-1.02738 -5.05033,0.5017 -2.29107,1.04321 -4.40558,2.07892 -4.69891,2.30159 -0.61788,0.46903 7.44288,7.65842 8.58664,7.65842 0.4205,0 1.05397,-1.08 1.40772,-2.4 z m 99.87866,-26.941 c 0.73383,-0.88421 3.52687,-2.247 6.20675,-3.02841 5.83664,-1.70188 7.16255,-3.89726 2.35378,-3.89726 -1.83933,0 -5.24761,-1.08 -7.57396,-2.4 -3.66734,-2.08089 -4.36693,-2.18726 -5.26166,-0.8 -1.17193,1.81707 -1.43254,9.94317 -0.35349,11.02222 1.19162,1.19162 3.22194,0.79835 4.62858,-0.89655 z m 33.85153,-13.94158 c 1.55903,-0.31751 3.31754,-2.31502 5.05296,-5.73971 2.38104,-4.698755 2.49085,-5.423642 1.04117,-6.873319 -2.21511,-2.215108 -8.45433,-3.241169 -12.56038,-2.065594 -3.89097,1.113999 -5.50787,3.956157 -6.44516,11.329193 l -0.6485,5.10133 5.58435,-0.63245 c 3.07139,-0.34786 6.66039,-0.85161 7.97556,-1.11945 z M 188.80001,81.847608 c 0,-1.74423 -5.12987,-9.314277 -6.31186,-9.314277 -1.11532,0 -6.48814,6.933898 -6.48814,8.373274 0,1.533866 2.03227,2.114428 7.73333,2.209182 3.42458,0.05692 5.06667,-0.354094 5.06667,-1.268179 z m 82.43189,95.485722 c 0.20325,-3.46296 -0.0516,-3.95436 -1.89856,-3.66008 -1.17333,0.18696 -3.94811,1.26696 -6.16618,2.4 -4.79171,2.44772 -7.16715,2.62428 -7.16715,0.53271 0,-3.74957 10.10439,-8.07263 18.86833,-8.07263 9.73955,0 18.96919,-6.29285 27.32179,-18.62824 9.61041,-14.19299 20.81508,-23.43097 27.62542,-22.77649 5.04966,0.48528 4.27555,2.0572 -2.64755,5.37624 -7.29637,3.49799 -17.16758,13.19931 -21.46558,21.09614 l -3.09585,5.6881 2.2467,1.68879 c 1.23569,0.92884 3.46921,2.5512 4.96339,3.60526 1.49418,1.05405 2.71668,2.61405 2.71668,3.46666 0,1.98432 -3.12936,1.93918 -5.80387,-0.0837 -5.51278,-4.16966 -21.58502,0.88726 -28.50151,8.96762 -4.87751,5.69827 -7.31522,5.83752 -6.99606,0.39964 z"
       id="path15" />
    <path
       style="display:inline;fill:#563d22"
       d="m 55.578971,426.72056 c -14.747173,-0.71251 -15.45397,-1.28331 -12.147381,-9.81 1.217984,-3.14081 4.234238,-10.27057 6.702785,-15.8439 5.386112,-12.16043 20.685366,-57.55649 22.563176,-66.94963 1.051467,-5.25962 1.063197,-7.98577 0.05508,-12.8 -2.659772,-12.70163 -13.435578,-31.54932 -32.769908,-57.31704 -6.602918,-8.8 -13.675854,-18.64 -15.717636,-21.86666 C 0.50717946,204.58826 -4.8845463,158.02357 9.7294689,116.59903 21.055703,84.493958 40.775405,60.772929 75.200002,37.843868 130.61125,0.9363054 191.57495,-8.0305597 255.76501,11.285404 c 36.86358,11.092925 58.99912,22.378237 76.57299,39.039029 10.65415,10.100596 17.22996,18.855982 23.75643,31.630582 11.14179,21.808375 16.15838,39.493045 16.18961,57.072145 0.0276,15.54252 1.82359,32.72896 4.10575,39.28937 3.22583,9.27315 8.19662,16.17836 22.92166,31.8418 24.53118,26.0945 24.55489,31.91205 0.19337,47.4423 -6.13252,3.90943 -11.45596,8.07193 -11.82987,9.25001 -0.41161,1.29686 0.4408,4.63906 2.16045,8.47096 4.72276,10.52371 4.6793,12.55847 -0.39339,18.41951 -4.88804,5.64768 -4.8254,5.44948 -3.19776,10.11854 1.65976,4.76117 0.57078,7.83492 -4.99661,14.1035 -7.73696,8.71141 -8.06523,10.63584 -4.7143,27.63684 1.17334,5.95291 2.13066,12.5882 2.12739,14.74507 -0.0154,10.17537 -5.46801,18.3266 -15.20297,22.72741 -5.29324,2.39287 -6.72755,2.52571 -26.92442,2.49351 -16.45801,-0.0262 -24.92699,-0.57471 -37.05839,-2.4 -8.64878,-1.30129 -19.92878,-2.36524 -25.06667,-2.36433 -16.45326,0.003 -19.38562,3.21201 -24.36557,26.66501 -3.43884,16.19516 -4.59642,18.6974 -9.06302,19.59072 -4.02837,0.80568 -167.916301,0.50794 -185.400719,-0.33682 z m 180.606099,-8.58724 c 0.87642,-0.88 3.06368,-7.79421 4.86058,-15.36491 3.37373,-14.21421 6.23094,-21.98341 9.3951,-25.54676 6.06141,-6.82612 19.40502,-7.6273 53.65708,-3.22167 12.70382,1.63401 27.54324,2.84347 35.63551,2.90441 12.0673,0.0909 14.52044,-0.19385 18.90489,-2.1941 9.38165,-4.28004 11.21292,-11.65149 7.76178,-31.24363 -2.84829,-16.1698 -1.8349,-21.79562 5.39182,-29.93253 2.60784,-2.93627 4.74151,-5.6147 4.74151,-5.95207 0,-0.33736 -2.18425,-2.61887 -4.85389,-5.07003 -6.144,-5.64115 -5.62368,-7.36427 3.4686,-11.4869 3.74525,-1.69818 7.08699,-3.8106 7.42609,-4.69426 0.33909,-0.88367 -0.64137,-4.40963 -2.1788,-7.83549 -4.48449,-9.99278 -3.40001,-17.18188 3.34014,-22.14194 1.72887,-1.27228 6.45566,-4.32255 10.50397,-6.77839 9.12154,-5.53343 13.22842,-9.31464 13.22324,-12.17462 -0.007,-3.59483 -3.54113,-8.37374 -15.19694,-20.54669 -24.23093,-25.306 -27.7687,-33.46389 -29.57903,-68.20747 C 360.48711,106.43156 351.64908,83.623653 328.63226,60.763453 307.40338,39.679031 282.38647,27.393775 238.53781,16.520038 213.73369,10.369028 199.77751,8.8870936 182.28984,10.547355 116.01092,16.839807 49.124634,56.340308 25.852466,102.93333 11.620747,131.42654 8.5549913,174.49131 18.223627,210.09587 c 3.148919,11.59584 7.241274,18.59098 23.423033,40.03746 7.967714,10.56 17.485325,23.6641 21.150248,29.12023 12.148406,18.08587 20.403094,37.39245 20.403094,47.72004 0,9.03785 -11.990698,48.56589 -23.410226,77.17318 -2.432646,6.09407 -4.27495,11.85407 -4.09401,12.8 0.476058,2.48876 16.458829,2.92446 104.533364,2.84968 64.62338,-0.0549 74.57116,-0.27269 75.95594,-1.66314 z m -83.1184,-76.8 c -0.83829,-1.35637 -0.17999,-2.42686 5.90354,-9.6 10.06413,-11.86671 16.30392,-23.12224 21.30859,-38.43712 4.25757,-13.02866 6.10839,-16.28561 14.82962,-26.09621 11.7953,-13.26865 11.43645,-15.51683 -2.90858,-18.22242 -12.85188,-2.42398 -14.03134,-2.09513 -16.27802,4.5385 -1.0275,3.03384 -4.37662,9.62098 -7.44249,14.63809 l -5.5743,9.12203 -0.87457,14.28851 c -1.38418,22.61471 -5.72328,37.02785 -11.39262,37.84281 -2.93434,0.42181 -3.01457,-1.15019 -0.25098,-4.91738 5.0377,-6.86714 8.76056,-35.34741 5.02569,-38.44707 -1.01752,-0.84447 -3.64821,-0.40484 -9.86666,1.64888 -12.13238,4.00686 -27.25635,3.98609 -39.55178,-0.0543 -16.57778,-5.44765 -33.907549,-19.94208 -44.261331,-37.01969 -3.597831,-5.93428 -5.612802,-8.18566 -7.943392,-8.87534 -6.829286,-2.02096 -9.056285,-3.6145 -14.360754,-10.27591 -10.742979,-13.49114 -14.241148,-23.6477 -15.392394,-44.69015 -0.340323,-6.22042 -1.148125,-15.44582 -1.795115,-20.50089 -1.506461,-11.77029 0.02934,-21.53431 4.678237,-29.74229 1.827541,-3.22667 3.660006,-7.78667 4.072145,-10.13333 1.741325,-9.91489 4.650072,-18.74947 9.306673,-28.266669 4.657612,-9.519265 6.089535,-11.282522 23.629548,-29.0972 20.62542,-20.948402 27.279445,-26.215753 34.308208,-27.158508 2.553435,-0.342487 9.540725,-3.13408 15.527305,-6.203539 20.07279,-10.291781 45.88614,-17.423271 63.31327,-17.491641 6.15459,-0.02415 13.83016,-0.09903 17.05683,-0.166409 22.33026,-0.466301 31.85711,0.150443 41.97657,2.717454 5.7309,1.453761 13.15063,4.136696 16.48829,5.962077 3.33766,1.825381 8.65426,3.751168 11.81467,4.279527 8.11314,1.356359 18.3729,6.453073 24.46931,12.155552 4.0415,3.780351 6.01593,4.874594 8.82845,4.892781 4.87465,0.03152 11.50853,3.181968 16.83702,7.995936 5.21644,4.712738 12.96821,16.081141 16.66488,24.439972 1.45974,3.300725 5.2318,9.765222 8.38236,14.36555 4.41814,6.451207 5.9879,9.838097 6.86339,14.808327 0.62431,3.54426 2.08982,8.3155 3.25669,10.60276 4.87407,9.55396 7.58205,27.25065 5.59076,36.53571 -2.13277,9.94476 -14.51635,33.20895 -20.84511,39.1603 -5.1287,4.82286 -12.39595,6.59206 -32.21422,7.84254 -16.11687,1.01693 -17.74916,0.94615 -23.59472,-1.02308 -9.49572,-3.19887 -14.39232,-1.20351 -15.60139,6.35757 -0.7025,4.3932 -5.57617,10.1746 -13.67967,16.22754 -2.52213,1.88392 -5.12555,5.4387 -7.26273,9.91677 -4.29968,9.00916 -9.04954,12.55258 -20.06057,14.96528 -10.45115,2.29003 -11.46894,2.8607 -14.01988,7.86095 -1.16208,2.27786 -4.57412,6.94181 -7.58232,10.36434 -8.34157,9.49047 -11.02934,13.9025 -14.83753,24.3561 -6.20746,17.03967 -17.05235,35.8859 -25.9332,45.06667 -4.58452,4.73935 -5.51836,5.22928 -6.60772,3.46666 z m -10.8517,-57.53633 c 15.07911,-5.18798 29.4281,-20.91635 29.49494,-32.33033 0.0317,-5.4194 -2.65,-7.84915 -9.72718,-8.81317 -3.14383,-0.42824 -8.11606,-1.73791 -11.04939,-2.91039 -2.93334,-1.17247 -9.00882,-2.51729 -13.50107,-2.98849 -9.57936,-1.00479 -19.90782,-5.03893 -29.39397,-11.48085 -3.62335,-2.46057 -7.37625,-4.47377 -8.339786,-4.47377 -0.963532,0 -4.70987,1.63667 -8.325194,3.63703 -3.615325,2.00036 -10.288567,4.94092 -14.829428,6.53457 -9.145322,3.20961 -13.615708,6.59869 -13.600547,10.3108 0.03908,9.56842 22.309917,32.57157 38.115985,39.36931 13.09409,5.6314 30.14263,6.93432 41.15564,3.14529 z m 81.95142,-39.16181 c 7.51488,-2.06777 11.79126,-6.26677 15.1006,-14.82736 2.19866,-5.68749 3.10499,-6.73395 8.79219,-10.15156 7.45103,-4.47757 10.0628,-8.73771 10.08884,-16.45627 0.025,-7.41828 1.09856,-8.85274 5.40799,-7.22612 2.59062,0.97785 4.46743,0.98839 7.99512,0.0449 4.11613,-1.1009 5.18159,-0.96514 9.94868,1.26765 5.03208,2.3569 6.18888,2.46693 20.1317,1.91498 9.11302,-0.36076 17.34296,-1.30113 21.43451,-2.44916 7.57624,-2.12579 12.93399,-6.41554 12.93399,-10.35577 0,-3.78249 -4.17741,-9.35629 -8.8,-11.74158 -2.2,-1.13521 -4,-2.49697 -4,-3.02612 0,-2.04962 4.29587,-0.79817 9.66651,2.81601 3.08783,2.07795 6.36307,3.63387 7.27833,3.45761 2.15632,-0.41527 5.8949,-7.07304 8.75263,-15.58693 1.92832,-5.74498 2.18853,-8.44768 1.74579,-18.13333 -0.59948,-13.11442 -1.8479,-17.95629 -5.85893,-22.72312 -2.27219,-2.70035 -3.00719,-4.93653 -3.54265,-10.77824 -0.76205,-8.31392 -3.11637,-12.464303 -8.01731,-14.133563 -3.95782,-1.348036 -4.65238,-2.377946 -4.68512,-6.94719 -0.0793,-11.063043 -18.97782,-36.266665 -27.19399,-36.266665 -1.29137,0 -3.21674,0.96 -4.27859,2.133333 -2.69972,2.983156 -3.24561,2.747719 -5.7832,-2.494233 -2.49723,-5.158587 -8.5136,-9.978199 -17.7137,-14.190145 -4.9199,-2.252405 -7.19185,-2.660791 -13.09458,-2.353766 -6.62778,0.344739 -7.16534,0.206742 -7.46812,-1.917131 -0.52038,-3.650346 -3.5133,-5.546841 -12.55298,-7.954332 -11.92866,-3.176895 -29.90143,-3.947728 -36.17577,-1.551539 -5.99815,2.290716 -10.14499,7.072581 -10.14499,11.698542 0,4.144903 -0.89034,5.303493 -2.83519,3.689409 -2.27588,-1.888808 -1.67521,-7.736604 1.23519,-12.025324 4.67469,-6.888548 2.56489,-8.986395 -5.27685,-5.246931 -3.20238,1.527109 -4.54196,1.604899 -9.18423,0.533333 -7.6442,-1.76449 -11.13493,-1.572031 -15.93892,0.878785 -2.43484,1.242159 -6.28668,2.133333 -9.22074,2.133333 -6.8273,0 -13.62654,3.396168 -15.40757,7.695963 -0.76273,1.841386 -1.89339,6.403656 -2.51257,10.138379 -0.61918,3.734723 -1.60579,6.775821 -2.19246,6.757997 -0.58666,-0.01783 -1.30666,-3.758393 -1.6,-8.312374 -0.65419,-10.156313 -1.71129,-10.620435 -11.98851,-5.263585 -10.4301,5.436537 -14.31792,8.834705 -17.46349,15.264013 -3.490945,7.135231 -5.337605,6.93715 -4.871725,-0.522562 0.422092,-6.75856 -0.448186,-6.90495 -7.711076,-1.297079 -6.68118,5.158716 -26.231864,24.938993 -26.231864,26.539917 0,0.641393 2.08423,2.088122 4.631622,3.214954 2.547392,1.126833 5.563174,3.429294 6.701738,5.116581 2.699661,4.000743 5.733307,10.722761 5.733307,12.703983 0,3.218717 -2.282826,1.391557 -4.376412,-3.502856 -3.604358,-8.426321 -9.278601,-13.066666 -15.978002,-13.066666 -2.508332,0 -4.329049,0.991771 -6.979049,3.801589 -4.648852,4.929219 -10.83564,17.85389 -12.317241,25.73164 -0.641342,3.41006 -1.892194,7.6872 -2.779672,9.50476 -1.75197,3.58806 -1.516131,5.7726 1.452815,13.45718 2.268107,5.8706 1.465373,7.50268 -2.060825,4.18999 -5.278385,-4.95878 -9.254523,0.94428 -10.051539,14.92274 -0.46189,8.10085 -0.247883,9.72952 1.686538,12.83513 1.218555,1.95633 3.202817,4.16104 4.409471,4.89934 3.118836,1.9083 2.714417,4.15353 -0.877549,4.87192 -2.458123,0.49163 -3.205744,1.33006 -3.743901,4.19869 -0.932241,4.96927 1.053047,14.56905 3.781451,18.28507 1.83211,2.49529 2.037236,3.47825 1.054295,5.05219 -1.736717,2.78093 -1.526684,5.35106 0.986141,12.06719 2.627472,7.02255 5.450519,9.37696 10.179619,8.48978 4.264487,-0.80003 5.31095,0.8057 2.911577,4.4676 -1.824906,2.78516 -1.805068,2.88027 1.126827,5.40218 3.48838,3.00058 3.612056,2.97727 17.752113,-3.34535 5.597161,-2.50272 12.88524,-5.33782 16.195731,-6.3002 9.604402,-2.79208 15.760946,-9.29504 15.760946,-16.64778 0,-2.62482 -0.749912,-3.7314 -3.7138,-5.48014 -2.042591,-1.20516 -5.849945,-5.38897 -8.460788,-9.29736 -2.610843,-3.90839 -5.739633,-7.71023 -6.952866,-8.44853 -1.988606,-1.21016 -3.139061,-4.5243 -1.570542,-4.5243 1.813416,0 7.224529,5.00312 10.171077,9.4042 1.8396,2.74769 5.713308,7.1558 8.60824,9.7958 4.769593,4.34957 5.339843,5.37394 6.076893,10.91615 0.47483,3.57041 1.66564,7.06257 2.86092,8.38991 4.86854,5.40643 27.85338,16.57699 29.89937,14.531 0.37274,-0.37275 -1.30366,-2.92868 -3.72534,-5.67985 -9.3598,-10.6333 -10.11599,-26.91438 -1.64357,-35.38681 4.80807,-4.80806 6.80372,-3.43188 2.64242,1.82218 -4.18381,5.28249 -5.39201,8.67033 -5.39201,15.11935 0,6.05809 2.58157,11.86615 7.10231,15.97885 10.46194,9.51767 29.38977,17.72591 31.8174,13.79793 0.35508,-0.57454 0.0995,-2.06508 -0.56802,-3.31232 -0.67977,-1.27014 -0.9174,-3.84675 -0.54022,-5.85731 0.75605,-4.03009 5.31914,-10.05241 7.61668,-10.05241 2.14688,0 1.85986,2.54838 -0.53068,4.71179 -2.81208,2.5449 -4.75687,7.58575 -3.66105,9.48935 0.4933,0.85693 2.92877,3.24749 5.41216,5.31236 4.59026,3.81668 7.56813,4.64745 25.88475,7.22142 7.33918,1.03134 16.85662,0.32502 24.69972,-1.83307 z m -40.1718,-15.29587 c 3.14994,-3.48064 8.09473,-4.22444 19.86347,-2.98788 12.93124,1.35871 16.39485,0.55246 23.72476,-5.52258 5.57031,-4.61668 7.08385,-5.19791 7.08385,-2.72033 0,2.37554 -10.18987,9.94415 -15.26638,11.33923 -3.37435,0.9273 -7.12797,0.92396 -15.34619,-0.0137 -9.32131,-1.06349 -11.44027,-1.00683 -14.79694,0.39568 -2.15473,0.9003 -4.65346,1.63691 -5.55274,1.63691 -1.37197,0 -1.32528,-0.3423 0.29017,-2.12735 z m 1.60542,-18.13932 c -4.58749,-2.51154 -10.09816,-2.66317 -16.5972,-0.45669 -2.71613,0.92215 -5.25215,1.3629 -5.6356,0.97945 -1.73743,-1.73743 7.83939,-5.83075 13.69946,-5.85542 1.46667,-0.006 4.89815,0.78853 7.62551,1.766 l 4.95884,1.77721 4.94791,-3.27736 c 3.13672,-2.07768 6.98312,-3.53545 10.50783,-3.98243 8.63781,-1.09539 9.0216,-1.34248 12.64534,-8.14131 4.01934,-7.54106 9.97091,-11.70622 16.86285,-11.80133 5.31034,-0.0733 10.71839,2.03008 10.71839,4.16875 0,1.11949 -0.54799,1.33707 -1.86667,0.74116 -4.12368,-1.8635 -12.46764,-1.65508 -16.26666,0.40632 -4.35216,2.36154 -8.53334,7.99939 -8.53334,11.50625 0,3.34214 -3.84735,5.7694 -9.14483,5.7694 -5.85445,0 -10.80641,1.73565 -15.59262,5.46518 -2.1656,1.68749 -4.0856,3.04804 -4.26667,3.02345 -0.18106,-0.0246 -2.00921,-0.96447 -4.06254,-2.08863 z M 51.200001,202.96888 c 0,-2.78099 -2.055323,-4.56586 -5.28,-4.58522 -1.496,-0.009 -3.423735,-0.46142 -4.283856,-1.00542 -1.251995,-0.79185 -0.972256,-1.21402 1.402773,-2.117 1.631646,-0.62035 4.095047,-1.12791 5.474225,-1.12791 1.651207,0 3.661675,-1.45715 5.886859,-4.26667 4.778574,-6.03344 7.354566,-5.74206 3.741473,0.42322 -1.51165,2.57943 -3.098729,6.74171 -3.526842,9.24951 -0.780318,4.57094 -3.414632,7.21672 -3.414632,3.42949 z m 124.956549,-1.43752 c -5.9501,-1.1845 -13.26923,-5.47651 -16.08684,-9.43348 -2.47359,-3.47382 -2.83005,-8.22136 -0.93035,-12.39075 1.89845,-4.16664 0.0646,-4.73886 -15.24685,-4.75747 -17.29192,-0.021 -19.82464,-0.86828 -21.51765,-7.19823 -2.30296,-8.61051 -5.37547,-7.44062 -8.13042,3.09576 -2.12079,8.11099 -3.94698,9.30939 -15.520013,10.18465 -8.958462,0.67753 -13.391091,-0.1121 -13.391091,-2.3855 0,-1.84019 0.224179,-1.85943 5.866667,-0.50339 5.692971,1.36817 14.502097,-0.42273 17.325487,-3.52228 1.17935,-1.29471 2.48074,-4.23614 2.89197,-6.53652 0.46654,-2.60979 1.95047,-5.30607 3.94636,-7.17051 2.15393,-2.01207 2.98623,-3.60732 2.54825,-4.88416 -0.35773,-1.04288 -4.05912,-4.53615 -8.22533,-7.76282 -4.1662,-3.22666 -9.20457,-7.85379 -11.196371,-10.2825 -2.264301,-2.76098 -5.708017,-5.30079 -9.189247,-6.77726 -5.943686,-2.52084 -11.434453,-6.97375 -11.434453,-9.27313 0,-2.04868 1.519819,-1.71322 3.83468,0.8464 2.732382,3.02128 9.544465,6.40662 11.433201,5.68184 1.432535,-0.54971 2.557497,-10.36198 3.222299,-28.1059 0.145256,-3.876975 0.553998,-4.740527 2.309821,-4.879975 1.173333,-0.09319 4.63343,-1.005405 7.6891,-2.027151 5.24849,-1.754972 5.76815,-1.756941 9.39559,-0.03561 2.50342,1.187952 4.20305,1.458885 4.88347,0.778463 0.58849,-0.588491 0.91024,-5.887845 0.73774,-12.151079 l -0.3059,-11.107429 -4,0.312835 c -2.2,0.172058 -4,0.110848 -4,-0.136024 0,-1.064867 12.12255,-10.310144 13.51882,-10.310144 0.97036,0 1.22877,0.493422 0.69828,1.333334 -0.46317,0.733333 -1.10937,10.041085 -1.43598,20.683893 -0.73433,23.927947 -1.37219,25.356727 -8.06566,18.066627 -4.84503,-5.276903 -7.85737,-6.086309 -11.95907,-3.213368 -7.317936,5.125688 -9.709615,21.920638 -4.4575,31.301688 3.69831,6.60574 7.63362,9.36551 11.1016,7.7854 1.46417,-0.66713 3.75804,-2.90455 5.09749,-4.97206 2.64033,-4.0755 5.47566,-4.88386 6.73036,-1.91885 0.43445,1.02667 1.08581,9.89094 1.44745,19.69838 0.55744,15.11692 0.94694,18.12123 2.55841,19.73334 1.63832,1.63896 4.55372,1.97528 21.10754,2.43495 22.81757,0.6336 24.14272,1.26515 16.45927,7.84433 -5.83158,4.99347 -6.22217,8.10552 -1.56351,12.45736 4.36342,4.07605 9.69321,5.70951 18.62917,5.70944 9.92566,-8e-5 16.82882,-2.98825 19.41058,-8.40226 2.13845,-4.48436 1.43113,-6.30747 -3.72798,-9.60887 -4.02768,-2.57739 -4.55479,-6.37932 -1.01593,-7.3277 1.32,-0.35374 10.2,-0.64973 19.73333,-0.65774 22.02958,-0.0185 21.60354,0.27117 21.59191,-14.68123 -0.008,-10.0877 -1.43834,-26.2887 -2.66146,-30.1424 -0.78944,-2.48732 -6.11749,-4.63997 -9.25182,-3.73795 -1.36325,0.39232 -4.0059,2.45992 -5.87256,4.59465 -3.25576,3.72333 -3.47707,3.80609 -5.4363,2.03301 -5.69663,-5.15538 -5.75168,-21.88941 -0.0889,-27.01418 1.84151,-1.66654 2.22828,-1.51463 6.74581,2.64949 7.35971,6.78394 13.29226,5.30002 15.15115,-3.78979 1.45842,-7.131543 1.07431,-37.356307 -0.49479,-38.93452 -1.82074,-1.831304 -26.38338,-2.497899 -36.20873,-0.982653 -5.68627,0.876924 -7.73071,1.714503 -9.68562,3.968062 -3.15971,3.642414 -2.43876,7.053316 2.58697,12.239188 6.07633,6.269944 2.55292,9.517095 -10.3268,9.517095 -7.40425,0 -14.52809,-2.021708 -16.10298,-4.569943 -0.49392,-0.799174 1.00845,-2.94344 3.96261,-5.655653 5.37707,-4.936686 5.89454,-7.534316 2.32708,-11.681733 -3.25186,-3.780516 -8.38648,-4.641712 -28.50226,-4.780494 -18.52912,-0.127836 -18.80817,-1.351618 -0.756,-3.315484 8.09525,-0.880668 13.10069,-0.841284 20.68673,0.162767 5.50412,0.728499 10.28904,1.042996 10.63315,0.698884 2.62927,-2.629271 -6.75659,-14.427309 -16.43055,-20.653216 -5.4057,-3.478969 -7.05183,-5.671793 -4.25776,-5.671793 2.23539,0 14.26552,8.338287 17.74088,12.296506 1.97083,2.244652 4.17026,6.763298 5.56841,11.440111 2.33012,7.794186 3.65898,10.396715 5.30863,10.396715 0.49442,0 2.60486,-1.497809 4.68986,-3.328465 4.50297,-3.953657 20.36541,-8.159116 34.14999,-9.053866 12.24164,-0.794598 12.99979,-1.05926 18.11694,-6.324422 2.54436,-2.617952 5.41725,-4.759913 6.3842,-4.759913 2.08183,0 1.20856,1.812401 -2.16298,4.489104 -3.76819,2.991598 -5.7274,8.077891 -4.59108,11.918871 0.54108,1.828947 1.37047,8.502491 1.84309,14.830097 0.47262,6.327606 1.3363,11.981734 1.9193,12.564729 0.58299,0.582994 4.6415,1.46164 9.01892,1.952547 4.37741,0.490907 9.44671,1.661918 11.2651,2.602246 2.99605,1.549316 4.04254,1.558758 11.15634,0.100658 11.50032,-2.357196 11.57469,-2.396526 13.65569,-7.222044 2.21863,-5.144671 6.83595,-10.088583 10.21394,-10.936407 3.59167,-0.90145 9.36305,-0.06184 9.85395,1.433532 0.29595,0.901518 -0.81127,1.333333 -3.41878,1.333333 -6.50135,0 -10.69365,2.434291 -13.23566,7.685372 -1.2571,2.596829 -2.28564,5.278893 -2.28564,5.960144 0,2.184558 -4.62702,4.221218 -10.95261,4.820971 -8.5579,0.811407 -13.07813,3.876173 -16.62698,11.273284 l -2.87549,5.99356 h -6.94942 c -11.49069,0 -17.00645,5.39863 -13.34994,13.06643 1.03423,2.16878 2.25848,7.69354 2.72056,12.27722 0.79982,7.93391 2.8625,12.52302 5.62876,12.52302 0.54867,0 5.49755,-4.34567 10.99751,-9.65703 l 9.99994,-9.65704 5.63717,0.3237 c 7.09731,0.40755 6.92645,2.27243 -0.27737,3.02737 -5.0977,0.53423 -5.93212,1.07453 -13.17847,8.53334 -6.18437,6.36569 -8.7316,8.2284 -12.6987,9.28611 -5.52187,1.47225 -5.60881,1.64669 -6.45512,12.95034 -0.75303,10.05791 -1.00524,10.19411 -19.64551,10.60945 -8.62888,0.19227 -16.28046,0.84055 -17.00351,1.44063 -1.03458,0.85862 -0.97977,1.73861 0.25727,4.13078 2.31309,4.47302 1.92688,8.34559 -1.24733,12.50719 -5.09937,6.68562 -17.96838,10.69175 -27.95755,8.70319 z m -55.08988,-57.08692 c 0,-6.95653 -0.0171,-6.96723 -7.2,-4.49768 -2.2,0.75638 -4,1.93798 -4,2.62578 0,1.6151 8.73239,8.95401 10.13333,8.51629 0.58667,-0.1833 1.06667,-3.17328 1.06667,-6.64439 z m 101.43482,-23.37778 c 2.16125,-1.46666 4.97083,-2.66666 6.2435,-2.66666 3.04342,0 6.45044,-2.54817 5.48836,-4.10485 -0.41759,-0.67567 -2.46556,-1.22849 -4.55106,-1.22849 -2.0855,0 -5.70098,-1.073 -8.0344,-2.38446 -4.16695,-2.34196 -4.26936,-2.34783 -5.74523,-0.32946 -2.516,3.44083 -1.59409,13.38059 1.24105,13.38059 0.78552,0 3.19652,-1.2 5.35778,-2.66667 z m 21.42908,-11.31421 c 1.65152,-0.64948 5.38789,-1.48948 8.30303,-1.86666 4.78876,-0.61961 5.53338,-1.09755 7.71579,-4.95246 2.97106,-5.247941 3.10135,-8.643344 0.38741,-10.095803 -2.50215,-1.339111 -13.89215,-1.437589 -15.94432,-0.137855 -0.81081,0.51352 -1.86073,3.26617 -2.33316,6.116999 -0.47243,2.850829 -1.18904,6.743329 -1.59247,8.649989 -0.82101,3.88023 -0.735,3.93699 3.46372,2.28579 z M 189.45842,82.725333 c 0.69914,-1.821907 -5.51781,-11.276869 -7.37632,-11.218187 -1.54311,0.04872 -7.14876,7.904429 -7.14876,10.018201 0,2.026044 1.66128,2.557868 8.30014,2.657107 3.98731,0.0596 5.80631,-0.366185 6.22494,-1.457121 z M 174.87105,192.05522 c -8.30495,-2.52006 -9.61965,-5.97878 -3.67025,-9.65572 8.29616,-5.1273 8.18463,-9.2886 -0.35014,-13.06393 -4.01012,-1.77387 -7.92584,-2.29754 -20.32768,-2.71857 -12.54738,-0.42598 -15.69218,-0.85288 -17.17013,-2.33082 -1.46861,-1.46861 -1.94769,-4.87547 -2.54406,-18.09137 -0.79609,-17.64196 -2.00725,-21.95195 -6.48454,-23.07567 -3.81671,-0.95794 -6.66423,0.32823 -9.7849,4.41963 -1.5359,2.01367 -3.68325,3.66123 -4.77189,3.66123 -5.03619,0 -8.2378,-17.39347 -4.50113,-24.45346 3.41891,-6.45962 5.02858,-6.59543 10.28702,-0.8679 4.91651,5.3551 7.88027,6.25237 10.53029,3.18802 3.06379,-3.54281 4.21501,-9.38513 4.81829,-24.4523 0.33294,-8.315435 0.9987,-15.755434 1.47947,-16.533333 1.25392,-2.028876 34.01365,-2.031609 36.45793,-0.003 2.58023,2.141406 1.13369,4.128186 -5.0753,6.970756 -3.09754,1.4181 -8.11319,4.430826 -11.14589,6.694947 -4.75497,3.549914 -5.47069,4.555604 -5.1994,7.305868 0.21921,2.222305 1.33721,3.840323 3.68737,5.33653 1.94314,1.237082 5.26854,5.454361 7.84523,9.949352 2.45985,4.29116 6.86949,10.77116 9.79919,14.4 5.30586,6.57203 5.32469,6.62298 4.80448,12.99789 -0.28725,3.52 -1.57484,9.17528 -2.86131,12.56728 -3.64178,9.60217 -8.8853,11.62384 -12.41995,4.78857 -1.98736,-3.84313 -1.18794,-7.89759 1.74043,-8.82702 1.17841,-0.37401 2.91686,-2.17735 3.86322,-4.00742 1.63784,-3.16724 1.61364,-3.41406 -0.5028,-5.12786 -2.75978,-2.23473 -15.45713,-5.76378 -17.67528,-4.91259 -2.45104,0.94055 -3.32078,5.79234 -1.42728,7.96202 0.91289,1.04604 1.82265,4.87578 2.13352,8.98123 0.72902,9.62789 4.54447,16.26204 10.99325,19.11464 5.78352,2.55833 9.07011,1.84943 13.74571,-2.96489 6.79098,-6.99244 13.8254,-23.58657 19.31135,-45.55524 4.68632,-18.766586 5.47351,-20.617926 9.07279,-21.337781 7.41735,-1.48347 5.60785,-14.352708 -2.63864,-18.766094 -3.12783,-1.673966 -3.64443,-4.812604 -0.96157,-5.842114 0.98731,-0.378867 6.14731,-0.971078 11.46667,-1.316025 8.11415,-0.526182 10.35861,-0.30502 13.93822,1.373424 l 4.26667,2.0006 -10.12343,0.311395 c -5.56788,0.171268 -10.51571,0.703683 -10.99517,1.183145 -0.47947,0.479462 0.18004,2.889668 1.46558,5.356012 1.91321,3.670583 2.23312,5.633489 1.76302,10.817744 -0.31586,3.483415 -0.14866,6.596542 0.37157,6.91806 0.52023,0.321518 3.28566,-0.246441 6.1454,-1.262131 5.10084,-1.81166 5.27485,-1.802268 9.16817,0.494844 2.18275,1.287855 4.41178,2.067672 4.95341,1.732927 0.54163,-0.334744 0.98478,-5.168626 0.98478,-10.741959 0,-11.249579 0.90062,-11.998709 4.53836,-3.774991 2.65375,5.99924 2.87773,14.469021 0.50169,18.971633 -2.81628,5.336891 -4.99938,5.441381 -9.29829,0.445031 -4.95569,-5.759667 -9.03079,-5.936827 -13.71971,-0.596443 -4.10166,4.671533 -5.87963,11.102163 -5.19083,18.774373 0.92291,10.27986 6.14477,18.03963 12.13958,18.03963 2.93927,0 4.00628,-0.71628 6.35581,-4.26667 5.84169,-8.82739 8.30937,-4.51026 8.36543,14.63509 0.056,19.11822 0.83217,18.39964 -21.12309,19.5554 -16.93263,0.89136 -20.09054,1.64178 -22.01117,5.2305 -1.79591,3.35568 -1.28299,5.16049 2.7285,9.60072 2.12818,2.35564 3.66193,5.07301 3.46353,6.13641 -0.81898,4.38969 -13.14109,7.07951 -21.2121,4.63044 z m 14.59536,-4.81736 c 0.3297,-0.85918 -0.40929,-2.97879 -1.64219,-4.71024 -3.23306,-4.54041 -3.90983,-9.15745 -1.81168,-12.35963 3.08871,-4.71397 7.63978,-6.17939 21.82396,-7.02716 7.24341,-0.43294 13.66749,-1.28482 14.27574,-1.89307 2.78746,-2.78746 -14.59721,-9.39847 -27.60655,-10.49816 -9.01125,-0.76173 -13.21137,0.54454 -16.47132,5.12271 -2.84975,4.00212 -2.86779,8.0586 -0.0563,12.66102 2.98136,4.88046 2.88421,8.22823 -0.37808,13.02913 -4.24877,6.25262 -3.64871,7.01457 5.63347,7.15332 4.02122,0.0601 5.80504,-0.36286 6.23293,-1.47792 z M 147.19947,160.8 c -3e-4,-0.73334 -0.9603,-3.85849 -2.13334,-6.94478 -1.17303,-3.08629 -2.13279,-7.19455 -2.13279,-9.12946 0,-6.81262 -5.92309,-9.87578 -7.58024,-3.92016 -1.133,4.07187 -1.0766,12.33068 0.10545,15.4397 1.54298,4.05835 11.74231,8.01501 11.74092,4.5547 z m 81.02967,-7.12988 c 1.36637,-2.55307 1.4243,-12.84572 0.0842,-14.96441 -0.85779,-1.35619 -1.49005,-1.32121 -4.81986,0.26667 -4.92993,2.35092 -7.76946,2.30181 -11.88124,-0.20548 -4.77671,-2.91275 -8.08767,-10.47008 -8.6227,-19.68148 -0.58958,-10.15083 -1.13476,-12.41876 -2.98531,-12.41876 -0.85529,0 -2.27992,1.10624 -3.16582,2.4583 -1.79003,2.73193 -10.17178,30.56359 -10.17178,33.77546 0,2.78045 1.12098,3.30156 10.66475,4.95775 4.54574,0.78886 12.0458,2.85605 16.66679,4.59377 9.96483,3.74728 12.74982,3.98567 14.23093,1.21818 z m -62.45148,-7.15613 c 0.36991,-0.96397 0.44196,-1.98326 0.16012,-2.26511 -0.99215,-0.99215 -3.80444,0.77035 -3.80444,2.38431 0,2.18379 2.79567,2.09235 3.64432,-0.1192 z m -25.79964,-20.1516 c 1.37468,-2.82951 3.277,-5.0702 4.58278,-5.39793 2.35812,-0.59185 9.74009,1.99268 18.79022,6.57873 8.34339,4.22792 8.86806,2.12044 1.80232,-7.23945 -3.22622,-4.27373 -6.98866,-9.69041 -8.36097,-12.03708 -1.37232,-2.34666 -5.052,-6.99103 -8.17708,-10.32081 -8.61413,-9.178398 -8.10878,-11.818463 3.91805,-20.468685 7.81489,-5.620815 5.89594,-7.825409 -6.99613,-8.037508 -10.15763,-0.167113 -10.47497,0.31389 -11.30772,17.13934 -0.38711,7.82155 -1.2666,16.082313 -1.95442,18.357243 -2.56967,8.49908 -8.92648,11.40071 -15.47507,7.06376 -4.07144,-2.69641 -5.86666,-2.69641 -5.86666,0 0,3.04871 3.76555,6.39898 7.2,6.40595 6.93675,0.0141 10.67693,2.00806 14.05042,7.49068 1.79475,2.91685 3.75387,5.30337 4.35358,5.30337 0.59972,0 2.14802,-2.17693 3.44068,-4.83761 z m -28.17383,-4.48661 c -0.44338,-3.84136 -4.07085,-4.79046 -4.07085,-1.06511 0,2.928 0.77558,3.98933 2.91529,3.98933 0.99865,0 1.38131,-0.96835 1.15556,-2.92422 z m 89.59582,-22.609116 c 0.26666,-0.8 -0.13334,-1.2 -0.93334,-0.933333 -0.77,0.256666 -1.61,1.096666 -1.86666,1.866669 -0.26667,0.8 0.13333,1.2 0.93333,0.93333 0.77,-0.25667 1.61,-1.09667 1.86667,-1.866666 z m 71.55364,80.199996 c -0.0622,-0.44 -0.026,-2.12 0.0804,-3.73333 0.17249,-2.61591 -0.16756,-2.93333 -3.14232,-2.93333 -1.83465,0 -5.19866,1.07216 -7.47557,2.38259 -4.2515,2.44685 -6.65319,2.07354 -4.36873,-0.67906 2.02919,-2.44504 10.58237,-4.90317 17.07594,-4.90752 9.40275,-0.006 19.02838,-6.87681 28.42805,-20.29114 9.97849,-14.24037 23.78784,-25.05896 27.38933,-21.45748 0.81465,0.81465 -0.21236,1.73159 -3.56487,3.18279 -2.59006,1.12116 -6.97111,4.0429 -9.73567,6.49275 -5.72606,5.07423 -16.02649,19.84245 -15.5533,22.29952 0.17323,0.89949 2.20065,2.62741 4.50538,3.83982 4.34984,2.28826 6.20242,4.87106 3.49389,4.87106 -0.85705,0 -2.19767,-0.77042 -2.97914,-1.71203 -3.83296,-4.61843 -25.28949,2.45645 -29.8554,9.84425 -2.07952,3.36472 -4.03802,4.64113 -4.29798,2.80111 z m -99.44671,-70.93333 c -6.0203,-8.02202 -10.26436,-19.646152 -6.84027,-18.73493 13.15893,3.501864 16.82762,4.73502 17.23349,5.792699 0.61025,1.590301 -2.38567,13.284291 -3.86227,15.075561 -1.8006,2.18434 -3.77456,1.53955 -6.53095,-2.13333 z m 5.65554,-6.06321 c 1.50617,-2.814305 1.45488,-2.991164 -1.41218,-4.869731 -2.63395,-1.725835 -6.01696,-1.195607 -6.01696,0.943056 0,2.022305 3.19463,5.989885 4.82295,5.989885 0.8261,0 1.99888,-0.92844 2.60619,-2.06321 z"
       id="path14" />
  </g>
</svg>
